{
	"asset":{
		"version":"2.0",
		"generator":"Maxon Cinema 4D 2025.0.2 (#200000219)"
	},
	"scenes":[{
		"nodes":[0]
	}],
	"nodes":[{
		"name":"Rabbit_remesh",
		"mesh":0,
		"translation":[1.5112541913986207,
		1.1830259561538697,
		-0.06925469636917114],
		"rotation":[-0.0027350429445505144,
		-0.0031392890959978105,
		-0.0736166462302208,
		0.9972779154777527],
		"scale":[1.0,
		1.0,
		1.0]
	}],
	"meshes":[{
		"name":"Rabbit_remesh",
		"primitives":[{
			"attributes":{
				"POSITION":1,
				"NORMAL":2,
				"TEXCOORD_0":3
			},
			"indices":0
		}]
	}],
	"accessors":[{
		"bufferView":0,
		"type":"SCALAR",
		"componentType":5123,
		"count":1677,
		"byteOffset":0,
		"min":[0],
		"max":[1676]
	},
	{
		"bufferView":1,
		"type":"VEC3",
		"componentType":5126,
		"count":1677,
		"byteOffset":0,
		"min":[-0.3191109001636505,
		-0.5869653224945068,
		-0.364708811044693],
		"max":[1.0542576313018799,
		0.9329339265823364,
		0.5493754148483276]
	},
	{
		"bufferView":1,
		"type":"VEC3",
		"componentType":5126,
		"count":1677,
		"byteOffset":12,
		"min":[-0.9975235462188721,
		-0.9146561622619629,
		-0.9906845092773438],
		"max":[0.999183177947998,
		0.99931800365448,
		0.9986224174499512]
	},
	{
		"bufferView":1,
		"type":"VEC2",
		"componentType":5126,
		"count":1677,
		"byteOffset":24,
		"min":[0.02855107933282852,
		0.12036588788032532],
		"max":[0.9855923652648926,
		0.9860116243362427]
	}],
	"bufferViews":[{
		"buffer":0,
		"byteOffset":0,
		"byteLength":3354,
		"target":34963
	},
	{
		"buffer":0,
		"byteOffset":3356,
		"byteLength":53664,
		"target":34962,
		"byteStride":32
	}],
	"buffers":[{
		"uri":"data:application/octet-stream;base64,",
		"byteLength":57020
	}]
}