{
	"asset":{
		"version":"2.0",
		"generator":"Maxon Cinema 4D 2025.0.2 (#200000219)"
	},
	"scenes":[{
		"nodes":[0]
	}],
	"nodes":[{
		"name":"Bird_remesh",
		"mesh":0,
		"translation":[1.4120768308639527,
		1.284532070159912,
		0.3478670120239258],
		"rotation":[0.0,
		0.0,
		0.0,
		-1.0],
		"scale":[1.0,
		1.0,
		1.0]
	}],
	"meshes":[{
		"name":"Bird_remesh",
		"primitives":[{
			"attributes":{
				"POSITION":1,
				"NORMAL":2,
				"TEXCOORD_0":3
			},
			"indices":0
		}]
	}],
	"accessors":[{
		"bufferView":0,
		"type":"SCALAR",
		"componentType":5123,
		"count":4026,
		"min":[0],
		"byteOffset":0,
		"max":[4025]
	},
	{
		"bufferView":1,
		"type":"VEC3",
		"componentType":5126,
		"count":4026,
		"min":[-0.8725282549858093,
		-0.7001306414604187,
		-0.9342861771583557],
		"byteOffset":0,
		"max":[1.3056086301803589,
		0.6698866486549377,
		0.26377013325691225]
	},
	{
		"bufferView":1,
		"type":"VEC3",
		"componentType":5126,
		"count":4026,
		"min":[-0.9874853491783142,
		-0.9997045397758484,
		-0.9914167523384094],
		"byteOffset":12,
		"max":[0.9993364810943604,
		0.9983267784118652,
		0.9970343708992004]
	},
	{
		"bufferView":1,
		"type":"VEC2",
		"componentType":5126,
		"count":4026,
		"min":[0.0031008876394480469,
		0.026626039296388627],
		"byteOffset":24,
		"max":[0.8464566469192505,
		0.996694803237915]
	}],
	"bufferViews":[{
		"buffer":0,
		"target":34963,
		"byteOffset":0,
		"byteLength":8052
	},
	{
		"buffer":0,
		"target":34962,
		"byteOffset":8052,
		"byteLength":128832,
		"byteStride":32
	}],
	"buffers":[{
		"uri":"data:application/octet-stream;base64,",
		"byteLength":136884
	}]
}