{
	"asset":{
		"version":"2.0",
		"generator":"Maxon Cinema 4D 2025.0.2 (#200000219)"
	},
	"scenes":[{
		"nodes":[0]
	}],
	"meshes":[{
		"name":"Wolf_HEAD_remesh_remesh",
		"primitives":[{
			"attributes":{
				"POSITION":1,
				"NORMAL":2,
				"TEXCOORD_0":3
			},
			"indices":0
		}]
	}],
	"nodes":[{
		"name":"Wolf_HEAD_remesh_remesh",
		"mesh":0,
		"translation":[1.473970651626587,
		1.0602781772613526,
		0.2438553124666214],
		"rotation":[0.0,
		0.0,
		0.0,
		-1.0],
		"scale":[1.0,
		1.0,
		1.0]
	}],
	"accessors":[{
		"bufferView":0,
		"type":"SCALAR",
		"componentType":5123,
		"count":2388,
		"byteOffset":0,
		"min":[0],
		"max":[2387]
	},
	{
		"bufferView":1,
		"type":"VEC3",
		"componentType":5126,
		"count":2388,
		"byteOffset":0,
		"min":[-0.6407532095909119,
		-0.45538783073425295,
		-0.8658906817436218],
		"max":[1.2120592594146729,
		0.8341008424758911,
		0.3591151237487793]
	},
	{
		"bufferView":1,
		"type":"VEC3",
		"componentType":5126,
		"count":2388,
		"byteOffset":12,
		"min":[-0.9968199133872986,
		-0.9903442859649658,
		-0.9914994835853577],
		"max":[0.9897223711013794,
		0.9992725253105164,
		0.9896471500396729]
	},
	{
		"bufferView":1,
		"type":"VEC2",
		"componentType":5126,
		"count":2388,
		"byteOffset":24,
		"min":[0.026206161826848985,
		0.14043769240379334],
		"max":[0.8821269869804382,
		0.9472856521606445]
	}],
	"bufferViews":[{
		"buffer":0,
		"byteOffset":0,
		"byteLength":4776,
		"target":34963
	},
	{
		"buffer":0,
		"byteOffset":4776,
		"byteLength":76416,
		"target":34962,
		"byteStride":32
	}],
	"buffers":[{
		"uri":"data:application/octet-stream;base64,",
		"byteLength":81192
	}]
}