{
	"asset":{
		"version":"2.0",
		"generator":"Maxon Cinema 4D 2025.0.2 (#200000219)"
	},
	"scenes":[{
		"nodes":[0]
	}],
	"nodes":[{
		"name":"FROG_remesh",
		"translation":[1.3843979835510255,
		1.2333142757415772,
		-0.11122696846723557],
		"mesh":0,
		"rotation":[0.0,
		-0.053463373333215716,
		0.0,
		-0.9985697865486145],
		"scale":[1.0,
		1.0,
		1.0]
	}],
	"meshes":[{
		"name":"FROG_remesh",
		"primitives":[{
			"attributes":{
				"POSITION":1,
				"NORMAL":2,
				"TEXCOORD_0":3
			},
			"indices":0
		}]
	}],
	"accessors":[{
		"bufferView":0,
		"type":"SCALAR",
		"componentType":5123,
		"count":2064,
		"byteOffset":0,
		"min":[0],
		"max":[2063]
	},
	{
		"bufferView":1,
		"type":"VEC3",
		"componentType":5126,
		"count":2064,
		"byteOffset":0,
		"min":[-0.4470137357711792,
		-0.6347935795783997,
		-0.4278116524219513],
		"max":[1.014252781867981,
		0.46317264437675478,
		0.6637789607048035]
	},
	{
		"bufferView":1,
		"type":"VEC3",
		"componentType":5126,
		"count":2064,
		"byteOffset":12,
		"min":[-0.8710591793060303,
		-0.9902161955833435,
		-0.9993270635604858],
		"max":[0.9813117384910584,
		0.9985145330429077,
		0.9941128492355347]
	},
	{
		"bufferView":1,
		"type":"VEC2",
		"componentType":5126,
		"count":2064,
		"byteOffset":24,
		"min":[0.04495396837592125,
		0.11262242496013642],
		"max":[0.9288370609283447,
		0.9764657020568848]
	}],
	"bufferViews":[{
		"buffer":0,
		"byteOffset":0,
		"byteLength":4128,
		"target":34963
	},
	{
		"buffer":0,
		"byteOffset":4128,
		"byteLength":66048,
		"target":34962,
		"byteStride":32
	}],
	"buffers":[{
		"uri":"data:application/octet-stream;base64,",
		"byteLength":70176
	}]
}