{
	"asset":{
		"version":"2.0",
		"generator":"Maxon Cinema 4D 2025.0.2 (#200000219)"
	},
	"scenes":[{
		"nodes":[0]
	}],
	"nodes":[{
		"name":"cola 1",
		"mesh":0,
		"translation":[-1.9863934516906739,
		0.3982420563697815,
		0.4562305212020874],
		"rotation":[0.0,
		0.0,
		0.0,
		-1.0],
		"scale":[1.0,
		1.0,
		1.0]
	}],
	"meshes":[{
		"name":"cola 1",
		"primitives":[{
			"attributes":{
				"POSITION":1,
				"NORMAL":2,
				"TEXCOORD_0":3
			},
			"indices":0
		}]
	}],
	"accessors":[{
		"bufferView":0,
		"type":"SCALAR",
		"componentType":5123,
		"byteOffset":0,
		"count":960,
		"min":[0],
		"max":[959]
	},
	{
		"bufferView":1,
		"type":"VEC3",
		"componentType":5126,
		"byteOffset":0,
		"count":960,
		"min":[-0.8675963878631592,
		-0.10954039543867111,
		-0.7168422341346741],
		"max":[0.8571127653121948,
		1.1976079940795899,
		0.12752486765384675]
	},
	{
		"bufferView":1,
		"type":"VEC3",
		"componentType":5126,
		"byteOffset":12,
		"count":960,
		"min":[-0.9968815445899963,
		-0.9999991655349731,
		-0.9938714504241943],
		"max":[0.883327066898346,
		0.9687021374702454,
		0.9860861301422119]
	},
	{
		"bufferView":1,
		"type":"VEC2",
		"componentType":5126,
		"byteOffset":24,
		"count":960,
		"min":[0.015625,
		0.0],
		"max":[0.984375,
		1.0]
	}],
	"bufferViews":[{
		"buffer":0,
		"byteOffset":0,
		"byteLength":1920,
		"target":34963
	},
	{
		"buffer":0,
		"byteOffset":1920,
		"byteLength":30720,
		"target":34962,
		"byteStride":32
	}],
	"buffers":[{
		"uri":"data:application/octet-stream;base64,",
		"byteLength":32640
	}]
}