{
	"asset":{
		"version":"2.0",
		"generator":"Maxon Cinema 4D 2025.0.2 (#200000219)"
	},
	"scenes":[{
		"nodes":[0]
	}],
	"nodes":[{
		"name":"Tail_Lizzard",
		"mesh":0,
		"translation":[-1.829755187034607,
		0.5258252024650574,
		0.0],
		"rotation":[0.0,
		0.0,
		0.0,
		-1.0],
		"scale":[1.0,
		1.0,
		1.0]
	}],
	"meshes":[{
		"name":"Tail_Lizzard",
		"primitives":[{
			"attributes":{
				"POSITION":1,
				"NORMAL":2,
				"TEXCOORD_0":3
			},
			"indices":0
		}]
	}],
	"accessors":[{
		"bufferView":0,
		"count":2496,
		"type":"SCALAR",
		"componentType":5123,
		"byteOffset":0,
		"min":[0],
		"max":[2495]
	},
	{
		"bufferView":1,
		"count":2496,
		"type":"VEC3",
		"componentType":5126,
		"byteOffset":0,
		"min":[-1.942430853843689,
		-0.16627301275730134,
		-0.16552035510540009],
		"max":[0.6631397604942322,
		0.1895209103822708,
		0.42450764775276186]
	},
	{
		"bufferView":1,
		"count":2496,
		"type":"VEC3",
		"componentType":5126,
		"byteOffset":12,
		"min":[-0.9012687802314758,
		-0.999208390712738,
		-0.9999780654907227],
		"max":[0.999600887298584,
		0.999902069568634,
		0.99986332654953]
	},
	{
		"bufferView":1,
		"count":2496,
		"type":"VEC2",
		"componentType":5126,
		"byteOffset":24,
		"min":[0.0,
		0.007111353799700737],
		"max":[1.0,
		0.9925187826156616]
	}],
	"bufferViews":[{
		"buffer":0,
		"target":34963,
		"byteOffset":0,
		"byteLength":4992
	},
	{
		"buffer":0,
		"target":34962,
		"byteOffset":4992,
		"byteLength":79872,
		"byteStride":32
	}],
	"buffers":[{
		"uri":"data:application/octet-stream;base64,",
		"byteLength":84864
	}]
}