{
	"asset":{
		"version":"2.0",
		"generator":"Maxon Cinema 4D 2025.0.2 (#200000219)"
	},
	"scenes":[{
		"nodes":[0]
	}],
	"nodes":[{
		"name":"Bola",
		"rotation":[0.0,
		0.0,
		0.0,
		-1.0],
		"translation":[-1.5726724863052369,
		0.49220094084739687,
		0.02705320343375206],
		"mesh":0,
		"scale":[1.0,
		1.0,
		1.0]
	}],
	"meshes":[{
		"name":"Bola",
		"primitives":[{
			"attributes":{
				"POSITION":1,
				"NORMAL":2,
				"TEXCOORD_0":3
			},
			"indices":0
		}]
	}],
	"accessors":[{
		"type":"SCALAR",
		"bufferView":0,
		"componentType":5123,
		"count":2880,
		"byteOffset":0,
		"min":[0],
		"max":[2879]
	},
	{
		"type":"VEC3",
		"bufferView":1,
		"componentType":5126,
		"count":2880,
		"byteOffset":0,
		"min":[-0.31976985931396487,
		-0.31976985931396487,
		-0.31976985931396487],
		"max":[0.31976985931396487,
		0.31976985931396487,
		0.31976985931396487]
	},
	{
		"type":"VEC3",
		"bufferView":1,
		"componentType":5126,
		"count":2880,
		"byteOffset":12,
		"min":[-1.0,
		-1.0,
		-1.0],
		"max":[1.0,
		1.0,
		1.0]
	},
	{
		"type":"VEC2",
		"bufferView":1,
		"componentType":5126,
		"count":2880,
		"byteOffset":24,
		"min":[0.0,
		0.0],
		"max":[1.0,
		1.0]
	}],
	"bufferViews":[{
		"buffer":0,
		"target":34963,
		"byteOffset":0,
		"byteLength":5760
	},
	{
		"buffer":0,
		"target":34962,
		"byteOffset":5760,
		"byteLength":92160,
		"byteStride":32
	}],
	"buffers":[{
		"uri":"data:application/octet-stream;base64,",
		"byteLength":97920
	}]
}