{
	"scenes":[{
		"nodes":[0]
	}],
	"asset":{
		"version":"2.0",
		"generator":"Maxon Cinema 4D 2025.0.2 (#200000219)"
	},
	"nodes":[{
		"name":"FISH_tail",
		"mesh":0,
		"translation":[-0.2919483184814453,
		-0.13663919270038606,
		-0.06190233305096626],
		"rotation":[0.0,
		0.0,
		0.0,
		-1.0],
		"scale":[1.0,
		1.0,
		1.0]
	}],
	"meshes":[{
		"name":"FISH_tail",
		"primitives":[{
			"attributes":{
				"POSITION":1,
				"NORMAL":2,
				"TEXCOORD_0":3
			},
			"indices":0
		}]
	}],
	"accessors":[{
		"bufferView":0,
		"type":"SCALAR",
		"componentType":5123,
		"count":3084,
		"byteOffset":0,
		"min":[0],
		"max":[3083]
	},
	{
		"bufferView":1,
		"type":"VEC3",
		"componentType":5126,
		"count":3084,
		"byteOffset":0,
		"min":[-2.8526251316070558,
		-2.023390054702759,
		-0.9245618581771851],
		"max":[0.09004992991685868,
		1.7116973400115967,
		0.36593860387802126]
	},
	{
		"bufferView":1,
		"type":"VEC3",
		"componentType":5126,
		"count":3084,
		"byteOffset":12,
		"min":[-0.9604987502098084,
		-0.9980623126029968,
		-0.999479353427887],
		"max":[0.982327401638031,
		0.9947730302810669,
		0.9999209046363831]
	},
	{
		"bufferView":1,
		"type":"VEC2",
		"componentType":5126,
		"count":3084,
		"byteOffset":24,
		"min":[0.0021531598176807167,
		0.09821239113807678],
		"max":[0.9488243460655212,
		0.7453593015670776]
	}],
	"bufferViews":[{
		"buffer":0,
		"byteOffset":0,
		"byteLength":6168,
		"target":34963
	},
	{
		"buffer":0,
		"byteOffset":6168,
		"byteLength":98688,
		"target":34962,
		"byteStride":32
	}],
	"buffers":[{
		"uri":"data:application/octet-stream;base64,",
		"byteLength":104856
	}]
}