{
	"asset":{
		"version":"2.0",
		"generator":"Maxon Cinema 4D 2025.0.2 (#200000219)"
	},
	"scenes":[{
		"nodes":[0]
	}],
	"nodes":[{
		"name":"Cuerpo_Rana",
		"mesh":0,
		"translation":[-0.14723698794841767,
		-0.04628574475646019,
		-0.10957551002502442],
		"rotation":[0.0,
		0.0,
		0.0,
		-1.0],
		"scale":[1.0,
		1.0,
		1.0]
	}],
	"meshes":[{
		"name":"Cuerpo_Rana",
		"primitives":[{
			"attributes":{
				"POSITION":1,
				"NORMAL":2,
				"TEXCOORD_0":3
			},
			"indices":0
		}]
	}],
	"accessors":[{
		"bufferView":0,
		"type":"SCALAR",
		"componentType":5123,
		"count":3792,
		"byteOffset":0,
		"min":[0],
		"max":[3791]
	},
	{
		"bufferView":1,
		"type":"VEC3",
		"componentType":5126,
		"count":3792,
		"byteOffset":0,
		"min":[-1.3251525163650513,
		0.3719937801361084,
		-0.41155073046684267],
		"max":[1.8674761056900025,
		1.4687532186508179,
		0.6471972465515137]
	},
	{
		"bufferView":1,
		"type":"VEC3",
		"componentType":5126,
		"count":3792,
		"byteOffset":12,
		"min":[-0.9999730587005615,
		-0.9999949932098389,
		-0.9989124536514282],
		"max":[0.9994108080863953,
		0.997197151184082,
		0.9999862909317017]
	},
	{
		"bufferView":1,
		"type":"VEC2",
		"componentType":5126,
		"count":3792,
		"byteOffset":24,
		"min":[0.0,
		0.0],
		"max":[1.0,
		1.0]
	}],
	"bufferViews":[{
		"buffer":0,
		"byteOffset":0,
		"byteLength":7584,
		"target":34963
	},
	{
		"buffer":0,
		"byteOffset":7584,
		"byteLength":121344,
		"target":34962,
		"byteStride":32
	}],
	"buffers":[{
		"uri":"data:application/octet-stream;base64,",
		"byteLength":128928
	}]
}