{
	"meshes":[{
		"name":"Cuerpo_Pez",
		"primitives":[{
			"attributes":{
				"POSITION":1,
				"NORMAL":2,
				"TEXCOORD_0":3
			},
			"indices":0
		}]
	}],
	"asset":{
		"version":"2.0",
		"generator":"Maxon Cinema 4D 2025.0.2 (#200000219)"
	},
	"scenes":[{
		"nodes":[0]
	}],
	"nodes":[{
		"name":"Cuerpo_Pez",
		"mesh":0,
		"translation":[0.09544769674539566,
		-0.11062418669462204,
		0.0],
		"rotation":[0.0,
		0.0,
		0.0,
		-1.0],
		"scale":[1.0,
		1.0,
		1.0]
	}],
	"accessors":[{
		"count":4992,
		"bufferView":0,
		"type":"SCALAR",
		"componentType":5123,
		"byteOffset":0,
		"min":[0],
		"max":[4991]
	},
	{
		"count":4992,
		"bufferView":1,
		"type":"VEC3",
		"componentType":5126,
		"byteOffset":0,
		"min":[-1.639235019683838,
		-0.02908458560705185,
		-0.6649771928787231],
		"max":[1.7180699110031129,
		1.6718639135360718,
		0.6679733395576477]
	},
	{
		"count":4992,
		"bufferView":1,
		"type":"VEC3",
		"componentType":5126,
		"byteOffset":12,
		"min":[-0.9994736313819885,
		-0.9999180436134338,
		-0.9989132881164551],
		"max":[0.9999566674232483,
		0.9999672770500183,
		0.9986543655395508]
	},
	{
		"count":4992,
		"bufferView":1,
		"type":"VEC2",
		"componentType":5126,
		"byteOffset":24,
		"min":[0.0,
		0.0],
		"max":[1.0,
		1.0]
	}],
	"bufferViews":[{
		"buffer":0,
		"byteOffset":0,
		"byteLength":9984,
		"target":34963
	},
	{
		"buffer":0,
		"byteOffset":9984,
		"byteLength":159744,
		"target":34962,
		"byteStride":32
	}],
	"buffers":[{
		"uri":"data:application/octet-stream;base64,",
		"byteLength":169728
	}]
}