{
	"asset":{
		"version":"2.0",
		"generator":"Maxon Cinema 4D 2025.0.2 (#200000219)"
	},
	"scenes":[{
		"nodes":[0]
	}],
	"nodes":[{
		"name":"Cuerpo_Perro",
		"mesh":0
	}],
	"meshes":[{
		"name":"Cuerpo_Perro",
		"primitives":[{
			"attributes":{
				"POSITION":1,
				"NORMAL":2,
				"TEXCOORD_0":3
			},
			"indices":0
		}]
	}],
	"accessors":[{
		"bufferView":0,
		"type":"SCALAR",
		"componentType":5123,
		"count":4992,
		"byteOffset":0,
		"min":[0],
		"max":[4991]
	},
	{
		"bufferView":1,
		"type":"VEC3",
		"componentType":5126,
		"count":4992,
		"byteOffset":0,
		"min":[-1.477718710899353,
		-0.02908458560705185,
		-0.6649771928787231],
		"max":[1.7021822929382325,
		1.3851807117462159,
		0.6679733395576477]
	},
	{
		"bufferView":1,
		"type":"VEC3",
		"componentType":5126,
		"count":4992,
		"byteOffset":12,
		"min":[-0.9994736313819885,
		-0.9999033808708191,
		-0.9984714984893799],
		"max":[0.987593412399292,
		0.9998612999916077,
		0.9983088374137878]
	},
	{
		"bufferView":1,
		"type":"VEC2",
		"componentType":5126,
		"count":4992,
		"byteOffset":24,
		"min":[0.0,
		0.0],
		"max":[1.0,
		1.0]
	}],
	"bufferViews":[{
		"buffer":0,
		"byteOffset":0,
		"byteLength":9984,
		"target":34963
	},
	{
		"buffer":0,
		"byteOffset":9984,
		"byteLength":159744,
		"target":34962,
		"byteStride":32
	}],
	"buffers":[{
		"uri":"data:application/octet-stream;base64,",
		"byteLength":169728
	}]
}