{
	"asset":{
		"version":"2.0",
		"generator":"Maxon Cinema 4D 2025.0.2 (#200000219)"
	},
	"scenes":[{
		"nodes":[0]
	}],
	"nodes":[{
		"name":"Cuerpo_Conejo",
		"mesh":0,
		"translation":[-0.1482994705438614,
		0.0,
		0.0],
		"rotation":[0.0,
		0.0,
		0.0,
		-1.0],
		"scale":[1.0,
		1.0,
		1.0]
	}],
	"meshes":[{
		"name":"Cuerpo_Conejo",
		"primitives":[{
			"attributes":{
				"POSITION":1,
				"NORMAL":2,
				"TEXCOORD_0":3
			},
			"indices":0
		}]
	}],
	"accessors":[{
		"bufferView":0,
		"type":"SCALAR",
		"componentType":5123,
		"count":4992,
		"min":[0],
		"byteOffset":0,
		"max":[4991]
	},
	{
		"bufferView":1,
		"type":"VEC3",
		"componentType":5126,
		"count":4992,
		"min":[-1.3798648118972779,
		-0.06373942643404007,
		-0.726220428943634],
		"byteOffset":0,
		"max":[1.8032509088516236,
		1.8020093441009522,
		0.7141328454017639]
	},
	{
		"bufferView":1,
		"type":"VEC3",
		"componentType":5126,
		"count":4992,
		"min":[-0.9986467361450195,
		-0.9999033808708191,
		-0.9993847608566284],
		"byteOffset":12,
		"max":[0.987574577331543,
		0.9999136328697205,
		0.9998572468757629]
	},
	{
		"bufferView":1,
		"type":"VEC2",
		"componentType":5126,
		"count":4992,
		"min":[0.0,
		0.0],
		"byteOffset":24,
		"max":[1.0,
		1.0]
	}],
	"bufferViews":[{
		"buffer":0,
		"target":34963,
		"byteOffset":0,
		"byteLength":9984
	},
	{
		"buffer":0,
		"target":34962,
		"byteOffset":9984,
		"byteLength":159744,
		"byteStride":32
	}],
	"buffers":[{
		"uri":"data:application/octet-stream;base64,",
		"byteLength":169728
	}]
}