{
	"asset":{
		"version":"2.0",
		"generator":"Maxon Cinema 4D 2025.0.2 (#200000219)"
	},
	"scenes":[{
		"nodes":[0]
	}],
	"nodes":[{
		"mesh":0,
		"name":"BackLegs_Rabbit",
		"translation":[0.0,
		-0.15490685403347016,
		-0.0024319824296981098],
		"rotation":[0.0,
		0.0,
		0.0,
		-1.0],
		"scale":[1.0,
		1.0,
		1.0]
	}],
	"meshes":[{
		"name":"BackLegs_Rabbit",
		"primitives":[{
			"attributes":{
				"POSITION":1,
				"NORMAL":2,
				"TEXCOORD_0":3
			},
			"indices":0
		}]
	}],
	"accessors":[{
		"bufferView":0,
		"type":"SCALAR",
		"componentType":5123,
		"count":7680,
		"byteOffset":0,
		"min":[0],
		"max":[7679]
	},
	{
		"bufferView":1,
		"type":"VEC3",
		"componentType":5126,
		"count":7680,
		"byteOffset":0,
		"min":[-1.396284818649292,
		-0.8118923306465149,
		-0.9924740195274353],
		"max":[-0.2841641902923584,
		0.8521810173988342,
		0.9924740195274353]
	},
	{
		"bufferView":1,
		"type":"VEC3",
		"componentType":5126,
		"count":7680,
		"byteOffset":12,
		"min":[-0.9975450038909912,
		-1.0,
		-0.9999955892562866],
		"max":[0.9979806542396545,
		0.9999558329582214,
		0.9999955892562866]
	},
	{
		"bufferView":1,
		"type":"VEC2",
		"componentType":5126,
		"count":7680,
		"byteOffset":24,
		"min":[0.0,
		0.0],
		"max":[1.0,
		1.0]
	}],
	"bufferViews":[{
		"buffer":0,
		"byteOffset":0,
		"byteLength":15360,
		"target":34963
	},
	{
		"buffer":0,
		"byteOffset":15360,
		"byteLength":245760,
		"target":34962,
		"byteStride":32
	}],
	"buffers":[{
		"uri":"data:application/octet-stream;base64,",
		"byteLength":261120
	}]
}