{
	"asset":{
		"version":"2.0",
		"generator":"Maxon Cinema 4D 2025.0.2 (#200000219)"
	},
	"scenes":[{
		"nodes":[0]
	}],
	"bufferViews":[{
		"buffer":0,
		"byteOffset":0,
		"byteLength":19584,
		"target":34963
	},
	{
		"buffer":0,
		"byteOffset":19584,
		"byteLength":313344,
		"target":34962,
		"byteStride":32
	}],
	"nodes":[{
		"name":"BackLegs_Dog",
		"rotation":[0.0,
		0.0,
		0.0,
		-1.0],
		"mesh":0,
		"translation":[0.46910664439201357,
		0.0,
		-0.0024662448558956386],
		"scale":[1.0,
		1.0,
		1.0]
	}],
	"meshes":[{
		"name":"BackLegs_Dog",
		"primitives":[{
			"attributes":{
				"POSITION":1,
				"NORMAL":2,
				"TEXCOORD_0":3
			},
			"indices":0
		}]
	}],
	"accessors":[{
		"bufferView":0,
		"type":"SCALAR",
		"componentType":5123,
		"count":9792,
		"byteOffset":0,
		"min":[0],
		"max":[9791]
	},
	{
		"bufferView":1,
		"type":"VEC3",
		"componentType":5126,
		"count":9792,
		"byteOffset":0,
		"min":[-1.6522552967071534,
		-0.9712821841239929,
		-0.9152505993843079],
		"max":[-0.7596195936203003,
		0.9287589192390442,
		0.9152505993843079]
	},
	{
		"bufferView":1,
		"type":"VEC3",
		"componentType":5126,
		"count":9792,
		"byteOffset":12,
		"min":[-0.9999760389328003,
		-1.0,
		-0.9999991655349731],
		"max":[0.99997878074646,
		0.9996758103370667,
		0.9999991655349731]
	},
	{
		"bufferView":1,
		"type":"VEC2",
		"componentType":5126,
		"count":9792,
		"byteOffset":24,
		"min":[0.0,
		0.0],
		"max":[1.0,
		1.0]
	}],
	"buffers":[{
		"uri":"data:application/octet-stream;base64,",
		"byteLength":332928
	}]
}