{
	"asset":{
		"version":"2.0",
		"generator":"Maxon Cinema 4D 2025.0.2 (#200000219)"
	},
	"scenes":[{
		"nodes":[0]
	}],
	"nodes":[{
		"name":"BackLegs_Rana",
		"mesh":0,
		"translation":[0.0,
		-0.1859201341867447,
		0.1013161689043045],
		"rotation":[0.0,
		0.0,
		0.0,
		-1.0],
		"scale":[1.0,
		1.0,
		1.0]
	}],
	"meshes":[{
		"name":"BackLegs_Rana",
		"primitives":[{
			"attributes":{
				"POSITION":1,
				"NORMAL":2,
				"TEXCOORD_0":3
			},
			"indices":0
		}]
	}],
	"accessors":[{
		"bufferView":0,
		"type":"SCALAR",
		"componentType":5123,
		"count":8256,
		"byteOffset":0,
		"min":[0],
		"max":[8255]
	},
	{
		"bufferView":1,
		"type":"VEC3",
		"componentType":5126,
		"count":8256,
		"byteOffset":0,
		"min":[-1.739302635192871,
		-0.8243252635002136,
		-0.9536511301994324],
		"max":[-0.5312673449516296,
		0.9970541596412659,
		0.7129802703857422]
	},
	{
		"bufferView":1,
		"type":"VEC3",
		"componentType":5126,
		"count":8256,
		"byteOffset":12,
		"min":[-0.9962605237960815,
		-1.0,
		-1.0],
		"max":[0.9957767128944397,
		0.9869329333305359,
		1.0]
	},
	{
		"bufferView":1,
		"type":"VEC2",
		"componentType":5126,
		"count":8256,
		"byteOffset":24,
		"min":[0.0,
		0.0],
		"max":[1.0,
		1.0]
	}],
	"bufferViews":[{
		"buffer":0,
		"byteOffset":0,
		"byteLength":16512,
		"target":34963
	},
	{
		"buffer":0,
		"byteOffset":16512,
		"byteLength":264192,
		"target":34962,
		"byteStride":32
	}],
	"buffers":[{
		"uri":"data:application/octet-stream;base64,",
		"byteLength":280704
	}]
}