<?xml version="1.0" encoding="utf-8"?>
<!-- Generator: Adobe Illustrator 28.5.0, SVG Export Plug-In . SVG Version: 9.03 Build 54727)  -->
<svg version="1.1" id="Capa_1" xmlns="http://www.w3.org/2000/svg" xmlns:xlink="http://www.w3.org/1999/xlink" x="0px" y="0px"
	 viewBox="0 0 1024 1024" style="enable-background:new 0 0 1024 1024;" xml:space="preserve">
<g>
	<g>
		<path d="M522.6,186.7c11.3-6.4,23.8-10.3,36.3-13.3c12.7-3,24.8-7.6,38.2-7.7c17.9-0.1,33.9,10.1,47.5,20.7
			c18.8,14.6,35.3,32,50.3,50.5c5.5,6.3,9,14.7,15.5,19.9c2.3,1.7,4.7,2.7,7.5,2.2c0,0,1.5-0.3,1.5-0.3c0.6-0.1,1.2-0.2,1.7-0.3
			c6.5-0.8,12.9-1.2,19.4-1.5c50.5-2.5,197-5.9,232.1,27.3c0,0,1.2,1.2,1.2,1.2c2.4,2.3,2.1,6.3-0.2,8.5c-2.6,2.5-6.3,2.3-9.4,1.9
			c-8.7-0.9-16.5-5.3-24.9-6.6c-3.5-0.4-27.8-0.7-32-0.9c-45.1-0.6-97-1.4-141.8-0.5c-21.5,0.5-43,0.2-64.4,1.5
			c-12.8,0.8-25.7,1.6-38.4,4c-4.1,1-8.7,1.5-11.7,4.7c2.9-3.3,7.6-4.1,11.6-5.2c4.2-1,8.4-1.8,12.7-2.5c59.6-8.2,120.5-7,180.5-6.7
			c16.8,0.2,61.1,0.7,77.5,1.2c4.3,0,9.1,0.5,13.2,1.9c4.2,1.3,8.2,2.9,12.2,3.9c3.7,0.8,13.6,3.6,12.7-1.8
			c-0.1-0.1-0.2-0.3-0.3-0.4c0,0-0.3-0.3-0.3-0.3s-1-1.1-1-1.1c-34.5-31.9-179.6-28.7-229.1-26.1c-6.4,0.4-12.8,0.7-19.1,1.5
			c-1.4,0.2-1.9,0.3-3.1,0.6c-3.7,0.7-7.8-0.7-10.6-2.9c-7.1-5.6-10.4-14-16.2-20.6c-14.8-18.2-31-35.4-49.6-49.8
			c-6.7-5.3-13.8-10-21.2-13.9c-7.4-3.8-15.4-6.7-23.8-6.9c-12.7-0.4-25.3,3.8-37.8,6.3C546.7,177.6,534.1,180.9,522.6,186.7
			L522.6,186.7z"/>
		<path d="M451.1,348.9c-1.6-2.9-2.9-5.9-4.2-9c-0.6-3.2-1.2-6.4-1.6-9.7c-0.9-6.5-1.4-13-1.6-19.5c-0.2-7.3,0.1-14.7,0.8-22
			c0,0,0.3-2.4,0.3-2.4c0.2-5,2.2-9.6,4.4-14.1c0.1,3.3,0.1,6.6,0.2,9.8c0,0.4-0.1,0.8-0.2,1.2c-2.2,15.4-2,31.1,0.1,46.5
			c0.4,3.2,1,6.3,1.6,9.4C450.9,341.9,451.1,346,451.1,348.9L451.1,348.9z"/>
		<path d="M488.7,377.1c24.8,18.7,57.8,26.4,88.2,20.4c25-5.3,48.6-19.9,63.3-40.9c4.1-6.4,6.3-14.4,10.5-21.1c0,0,2.2-3.4,2.2-3.4
			c13.2-18.9,35.3-30.9,58.2-31.7c51.6-2.9,121-6.8,172.8-9.8c17.4-0.4,45.6-1.3,63-1.6c-69.1,7.1-150.5,10.2-219.9,14.4
			c-9.1,0.7-22.1,0.6-30.9,3.2c-17.3,4.4-32.7,15.8-42.2,30.9c-4.2,6.7-6.1,14.2-10.6,21.1c-3,4.6-6.5,8.6-10.3,12.4
			C592.9,411.4,532,414.7,488.7,377.1L488.7,377.1z"/>
		<path d="M412.2,667.5c15.7-6.8,30.5-15.3,45.3-23.7c30.4-17,58.7-38.3,81.6-64.6c5.4-6.3,10.8-13.3,15.3-20.2
			c16.6-25.1,26.8-54.2,34.3-83.2c3.4-14.3,6.2-30.2,9.6-44.5c3.9-14.7,7.9-29.3,11.1-44.2c-0.8,7.6-1.9,15.1-3.2,22.6
			c-1.3,7.5-2.6,15-3.9,22.5c-1.3,6.3-3.5,15.8-4.8,22.2c-4.2,22.4-10.2,44.8-18.8,65.9c-8.2,21.4-19.7,41.8-34.7,59.2
			c-14.7,17.6-32.1,32.9-50.7,46.3c-12.4,8.9-25.4,17-38.8,24.3C440.8,656.8,426.7,662.9,412.2,667.5L412.2,667.5z"/>
		<path d="M349.5,502c-19.7,46.1-36,95.8-34.9,146.5c0.3,5.9,1.1,12.9,1.9,18.8c1.1,10.6,1.6,21.3,1.6,31.9
			c-0.2,42.4-4.6,84.6-9.5,126.7c-0.6,4.2-1.9,14.8-2.5,18.9c-2.9,18.6-2.3,37.6,1.7,56.1c6.8,32.4,23.3,64.4,52.8,81.3
			c42.5,27.1,101.7,23.7,139-10.9c14.8-13.8,27.5-32.6,27.4-53.4c-0.1-15.5-9.8-32.2-25.7-35.5c-11.6-2.2-25.6,3.9-29.2,15.5
			c0,0-3.5-1.8-3.5-1.8c6-7.5,14.7-15.1,25.1-14.4c13.5,1.2,22.9,15,22.4,27.9c-1,21.8-20.9,40.5-38.7,50.8
			c-25.3,14.6-58.1,19.1-84.9,5.7c-12.9-6.5-24.6-15.6-32.6-27.8c-18.5-28.2-14.2-64.1-6.9-95.2c5-21,11.6-41.5,19.3-61.6
			c11.2-30.2,23.7-59.9,37.3-89.1c-12.8,29.5-24.6,59.5-35.1,89.9c-10.5,30.2-19.4,61.3-23,93.1c-3.5,32.8,4.7,64.1,34.2,82.2
			c31.5,21.1,74.3,13.3,102.7-9.7c11.6-9.7,23-22.8,23.7-38.6c0.7-11.9-9.5-25.5-22.2-23.6c-10.9,1.9-18.1,12.9-24.7,20.9
			c0,0,3.1-10,3.1-10c1.4-4.4,4.1-8.4,7.6-11.3c6.9-5.9,16.4-8.4,25.3-7c18.2,3,29.6,22,29.8,39.5c0.1,22.1-13.1,41.9-28.7,56.4
			c-38.6,35.9-99.8,39.4-143.8,11.4c-30.4-17.4-47.7-50.5-54.7-83.9c-4-18.8-4.7-38.4-1.7-57.4c0.5-4,1.9-14.7,2.4-18.9
			c4.9-41.9,9.4-84,9.5-126.2c-0.1-10.5-0.6-21.1-1.7-31.5C305.2,613.8,326.9,550.4,349.5,502L349.5,502z"/>
		<path d="M406.9,300.8c13.8,13.3,26.8,27.2,39.5,41.5c9.4,10.9,19.2,21.8,25.2,35c2,4.3,3.1,10.1,2.7,14.4c0,0.1,0,0.2,0,0.5
			c0,0.3-0.1,0.5-0.2,0.6c-2.3,17.9-8.5,41.5-21,57.5c-4.4,5.6-9.9,10.6-16.7,13.2c-2.4,0.9-5.2,1.3-7.7,1.7
			c-4,0.9-7.8,2.6-11.6,4.2c-31,14.4-59.7,33.4-92.1,44.8c-7.3,2.4-15.3,4.6-23.3,4.2c-16.4-1.5-33.4-7.7-44.7-20.1
			c-3.5-4.1-6.5-8.9-7.8-14.1c-2.7-12.4,1.9-26,11.1-34.5c7.6-7.4,17.7-10.8,26.1-16.4c2.3-1.6,3.5-3.6,1.7-5.8
			c-2.1-2.3-4.8-4.4-7.4-6.1c-8.2-5.6-18.6-6.2-28.1-4.6c-3.2,0.5-6.4,1.4-9.6,2.5c-3.4,1.1-6.6,2.6-10.4,2.7
			c-4.2,0.2-8.4-1.9-10.3-5.5c-1.9-3.2-2.6-6.7-3.6-10.1c-2-7.2-4.6-14.2-9.4-19.9c-7.8-10.2-20.5-13.6-31.7-19.1
			c-9.4-4.3-18.4-9.3-27.2-14.7c-5.9-3.9-11.8-7.3-16.9-12.3c-5.6-5.3-7-12.3,2.1-14.5c4.4-1.2,9.8-2.2,12.6-5.8
			c1.8-2.2,2.5-5.2,2.3-8.3c-0.1-3.1-1-6.3-2.2-9.1c-1.3-2.7-3.5-5.2-5.8-7.7c-5.9-6.6-13.8-13.4-19.9-19.9
			c-10.3-11.3-20.9-23.9-25.5-39c-3.9-12.5,4.2-23.7,10.8-33.5c9.1-13.3,2.4-17.6-11-20.5c-4.7-1-12.4-2.8-17-4.1
			c-17-5.1-32.9-14-45.8-26.2c-1.9-2.1-4.3-4-5.4-6.7c0-0.1-0.1-0.2-0.1-0.6c0-0.2,0-0.7,0.3-1.2c0.3-0.7,1.1-1,1.5-1.1
			c1.5-0.2,2.8,0.9,3.9,1.4c8.8,5.2,19.7,8.4,29.7,5.4c6.7-2.3,13.6-5.7,20.7-7.2c13-2.5,26.2-5.4,39.4-4.1
			c14.7,1.4,28.8,5.8,42.7,10.3c27.7,9.4,53.9,22.9,77.9,39.5c19.3,13,37,28.2,55.6,42.2c9.3,7,18.7,13.8,28.4,20.1
			c8.5,5.6,21,12.7,29.8,18c-9.1-5.1-21.6-11.7-30.4-17.2c-29.8-18.1-56.1-41.3-85.3-60.3c-24.3-15.5-50-29.2-77.4-38.5
			c-13.6-4.4-27.5-8.8-41.8-10.1c-12.9-1.2-25.7,1.7-38.3,4c-7.2,1.6-13.4,4.8-20.4,7.1c-10.4,3-21.6,0.4-30.9-4.7
			c0,0-1.9-1.1-1.9-1.1c-0.6-0.3-1.3-0.7-1.8-1c-0.1,0-0.2-0.1,0,0c0.1,0,0.2,0,0.5,0c0.3,0,1-0.3,1.3-0.9c0.3-0.6,0.2-1,0.2-1.2
			c0-0.2,0,0,0,0c0,0.1,0.1,0.2,0.2,0.3c10.5,12.4,25.2,21,40.1,27c7.7,3,16.8,5,24.9,6.8c4.4,1.1,8.9,2.2,12.9,4.7
			c8.5,5.5,5.3,15.2,0.5,21.9c-6,9-13.8,19-10.3,30.2c3.6,13.1,15.1,26.7,22.5,35.3c0.6,0.4,0.8,0.8,1.2,1.2c0,0,0.9,1,0.9,1
			c4.7,5.1,11.5,11.2,16.3,16.2c3.6,3.8,7.6,7.6,10,12.4c3,6.7,4.3,15.4-0.6,21.6c-3.5,4.5-9.5,5.8-14.6,7.1c-2,0.7-3.7,1-3.7,2.7
			c0.3,1.9,1.8,3.6,3.3,5.1c2.3,2.3,4.9,4.3,7.7,6.2c11.2,7.6,22.9,14.4,35.2,20c6.1,2.9,12.5,5.4,18.7,8.6
			c13.3,6.4,21.2,19,24.6,33c1.5,5,2.6,12.3,8.9,12.7c3.4,0.2,6.6-1.3,10.3-2.5c10-3.5,21-4.7,31.4-2c6.5,1.9,12.2,5.7,17.1,10.4
			c2.1,1.9,3.4,4.8,2.5,7.7c-0.7,2.2-2.3,3.6-3.9,4.9c-3,2.2-6.1,3.7-9.1,5.3c-8.9,4.6-17.6,9.6-22.6,18.3
			c-4.6,8.1-6.6,19.1-2.4,27.6c8.3,17,29.5,25.1,47.3,26.8c7.3,0.4,14.6-1.7,21.7-4c32.1-11.3,60.9-30.3,91.7-44.6
			c4-1.7,8.1-3.5,12.4-4.5c2.3-0.4,5-0.6,7.2-1.5c12.1-4.9,19.6-17.6,25.1-29.1c5.8-12.3,9.2-25.7,11.4-39.1c0,0,0,0,0,0.1
			c0,0.1,0,0.1,0,0l0-0.1c0,0,0-0.1,0-0.1c0.5-4.4-0.5-9-2.2-13.3c-5.6-13.1-15-24.1-24-35C432.9,328.8,420.3,314.4,406.9,300.8
			L406.9,300.8z"/>
		<path d="M439.7,272.5c1.6-0.1,2.9,1.2,3.9,2.2c0.5,1.3,0.8,2.5,1.1,3.8c1.2,4.9,1.7,9.9,2.2,14.9c0,0,0.3,3.7,0.3,3.7
			c-2,4.7-1.3,4.7-4,0.3c-0.5-6-1.1-12.1-2.5-17.9c-0.3-1.1-0.6-2.3-1-3.3C440,275,440.3,273.7,439.7,272.5L439.7,272.5z"/>
		<path d="M212.5,170c8.1,0.3,16.2,1,24.3,1.9c8,1.5,15.9,3.1,23.8,4.8c39.4,9.1,79.5,19.9,113.6,42.4c6.4,5.1,12.4,10.9,17,17.6
			c-5.8-5.7-12.4-10.3-19.3-14.3c-33.6-22.1-73.4-32.8-112.2-41.8c-7.9-1.7-15.8-3.3-23.7-4.8C228.2,173.9,220.4,171.9,212.5,170
			L212.5,170z"/>
		<path d="M442.8,516.7c-3.8,2.6-6.9,6.2-10,9.5c-8.5,7.6-21.1,21.2-14.6,33.2c2.9,5.5,14.4,13.6,20.9,11.5c4-1.2,6.5-5.1,9.1-8.4
			c1.6-1.7,3.3-3.5,5.5-4.9c2.1-1.4,4.9-1.8,7.2-0.9c-2.3-0.1-4.3,0.8-5.8,2.5c-1.4,1.6-2.5,3.6-3.6,5.6c-1.3,1.9-2.8,3.8-4.5,5.6
			c-7.4,8-16.8,4.6-24.4-1c-14.3-9.8-11.8-23.8-2.2-35.9c3-3.8,6.3-7.2,9.8-10.4C434.1,520.6,438.2,517.9,442.8,516.7L442.8,516.7z"
			/>
		<path d="M414.5,551.4c-2,6.5-30.2,97.3-31,100.6c-0.9,2.9-3.6,5.2-5.7,7.2c-2.3,2.5-2.8,6.2-1.9,9.4c1.4,4.2,5,7.1,8.9,9.4
			c11.7,6.2,29.6,14.9,41.5,21.1c6.3,3.2,14.8,7.3,20.8,10.8c6.9,3.9,13.5,8.7,18.9,14.6c5.4,5.8,9.9,12.2,14.5,18.6
			c9.2,12.6,18.3,25.7,24.4,40.3c3,7.3,5.5,14.8,7.4,22.5c2.4,9.5,4,19.3,5,29c0.6,5.3,0.8,11.6,4.1,15.6c0,0-3.4,0.4-3.4,0.4
			c2.1-4.7,3.5-9.7,4-14.9c1.1-10.5-0.5-21.2-2.3-31.6c-2.8-15.5-5.5-31.9-13.8-45.4c-1.3-2.1-2.9-4.4-4.5-6.3
			c-2.2-2.8-5.3-4.9-6.7-8.4c-0.9-1.9-0.4-4.8,1.7-6c2.4-1.4,4.8-0.7,7.2-0.6c6.9,0.7,13.6,3,20,5.1c5.1,1.8,10.2,3.7,15.2,6
			c10,4.7,19.6,11.1,26.1,20.1c13.4,18.5,11.1,43.9,1.9,63.7c0,0-3.2-2.3-3.2-2.3c4.8-4.4,9.5-8.9,13.4-13.9
			c14.2-17.4,7-35.3-5.1-51.4c-15.9-21.3-40.7-35.8-67.1-39.3c0,0,1-2.4,1-2.4c1.9-4.3,6-6.3,9.6-8.5c10.3-6,21-11.2,32.1-15.5
			c7.4-2.9,14.9-5.3,22.6-7.4c5.8-2.2,9.8,1.2,10.6,7.1c0.6,3.2-0.4,7.3,2.4,9.4c0,0-3,1.3-3,1.3c0.6-3.1,2.3-11.8,2.9-14.8
			c0.4-2.3,1.2-4.6,1-6.8c-1.2-4.7-9.4-3.7-13.2-3.7c-43.9,1.5-54.4,31.6-86.1,24.1c-16.6-4.3-30-15.6-45.4-22.4
			c-9.1-4.3-19-8.2-26.5-15.2c-6.1-5.5-9.4-11-5.5-19.2c1.2-2.3,35.6-77.6,37.9-82.5c-11.8,27.8-23.7,55.7-35.6,83.4
			c-0.6,1.5-1.1,3-1.3,4.5c-1,7.2,9,13.9,14.5,17.1c5.7,3.3,11.9,5.7,18.1,8.4c6.2,2.6,12.3,5.9,18.1,9.3
			c18.1,10.8,34.1,19.7,54.6,8.6c5.9-2.9,11.5-6.6,17.6-9.8c13.8-7.1,29.2-10.7,44.7-10.5c4.7,0,11.2,1.5,12.2,7.2
			c0.4,2.9-0.6,5.5-1,8.1c0,0-1,4.9-1,4.9l-2,9.9l-0.6,2.8l-2.4-1.5c-4.2-2.4-4-8.4-4.3-12.2c-0.4-2.2-1.1-4.3-3.2-4.4
			c-8.3,1.8-16.6,4.8-24.6,7.8c-10.9,4.2-21.4,9.3-31.5,15.2c-3.3,2-6.8,3.9-7.9,6.6l-1.5-2.7c33.1,5.2,63.5,27.1,77.4,57.8
			c11.8,27.6-7.9,43.2-26.4,60.1c0,0,4.2-9.1,4.2-9.1c8.6-18.6,11-42.3-1.5-59.7c-9.4-12.9-24.7-19.6-39.4-24.7
			c-7.5-2.5-15-5.1-22.8-5.2c-0.7,0.1-1,0.1-1.2,0.5c-0.1,0.6,0.5,1.6,0.9,2.2c1.2,1.8,3.6,3.7,5.3,5.9l1.3,1.6
			c8,10.5,12.1,23.5,14.8,36c3.8,20.7,10.2,44.8,1.1,64.8c0,0-1.4,3-1.4,3s-2-2.6-2-2.6c-4-5-4.3-11.7-4.9-17.7
			c-1-9.6-2.6-19.1-4.9-28.5c-1.9-7.5-4.2-14.8-7.2-21.9c-5.9-14.3-14.8-27-23.9-39.5c-4.6-6.2-9.1-12.6-14.2-18.2
			c-5.1-5.6-11.3-10.1-17.9-13.8c-19.6-10.9-42.8-21-62.3-32.1c-7.4-4.3-13.7-12.4-9.3-21.4c1.2-2.8,4.2-4.5,6-6.7
			c1.6-2.2,2.2-5,3-7.6C392.9,614,403.8,582.8,414.5,551.4L414.5,551.4z"/>
		<path d="M543.2,578.3c0,4.4,0.4,10.7,0.1,15c-0.2,3.1-0.4,6.2,0.4,9.1c0.5,1.5,3.2,0.3,4.4,0.2c9.7-2.4,19-6,28.7-8.8
			c9.7-2.6,19.2-5.3,28.7-8.7c9.4-3.3,18.5-7.3,27.5-11.5l-1.2,1.7c0.5-4.8,1.5-9.3,2.8-13.9c4.7-16.3,14.7-30.4,30.4-37.5
			c6.5-3.2,13.8-6.1,21.2-4.4c2.1,0.4,4.7,1.8,6.8,2.5c4.4,1.9,8.6,3.5,12.7,6.2c2.9,2.2,10.2,7.8,4.6,11c-3.7,1.4-7.7,0.6-11.4,0.2
			c-2.3-0.3-4.6-0.7-6.9-1.2c-5.1-1.1-10.6-3-15.4-0.3c-2.6,1.6-3.9,4.6-5.8,7.3c-1.3,1.9-2.6,3.9-3.9,5.8
			c-4.1,5.9-9.1,11.4-13.8,16.8c0.5-1.1-0.5-2.5-1.7-2.4c5.1-2.5,9.7-6.3,14.5-9.6c3.7-2.7,7.3-5.5,11-8.3c9.5-6,26.1-15.6,37.1-8.9
			c2,1.3,4.4,4,6.2,5.5c2.2,2.1,4.7,4,6.8,6.2c2.4,2.6,11.2,11.8,8.3,15.3c-1.4,1.6-3.6,0.7-5,0.1c-2.4-1.2-5.8-2.8-8.3-4
			c-5.1-2.4-10.8-5.6-16.2-6.4c-2.8-0.4-4.6,1.1-6.8,2.8c-9,7-18.7,13.2-28.3,19.4c-0.3,0.2-1.1,0.7-1.4,1c0.2-0.3,0.3-0.2,0.5-0.9
			c0.1-0.5,0-1-0.3-1.4c-1.2-1.4-1.8-0.8-1.9-0.9c-0.1,0-0.3,0.1-0.3,0.1c-0.1,0-0.1,0-0.1,0c0.4-0.2,1.4-0.8,1.8-1
			c9.8-6,20.5-10.7,31.7-13.3c5.2-1.3,10.4-2.4,15.9-2.4c12.5-0.1,26.6,6.1,32.4,17.8c2.3,5.3,3,11.1,1.4,16.8
			c-0.4,1.3-1.3,3-2.8,3.4c-2,0.6-3.4-1.3-4-2.8c-0.8-1.7-1.5-3.2-2.3-4.6c-3.1-5.8-8.3-10.2-14.3-12.7
			c-20.2-9.3-45.3,18.9-62.8,27.5c-6.4,3.2-13.8,5.2-21,5c-20.7,0.5-40,10.3-59.7,16c-13.4,4.2-27.6,6.4-41.7,5.7c0,0,1-0.5,1-0.5
			c-2.8,4.5-7.3,7.9-12.4,9.2c-18.2,4.9-28.4-16.2-17.8-29.9c-2.9,4.1-4.3,9.2-3.6,14.1c0.6,4.9,3.1,9.6,7.1,12.3
			c8.2,5.6,20.1,1.4,24.7-7c0,0,0.3-0.6,0.3-0.6c0,0,0.7,0,0.7,0c13.8,0.1,27.4-2.5,40.5-7c16.3-5.7,32.8-12.4,50.1-15.6
			c5.1-1.1,10.6-0.8,15.7-1.1c4.9-0.7,9.8-2.1,14.2-4.4c19-9.7,43.2-37.8,66.2-27.7c5.1,2.1,9.8,5.5,13.3,9.8
			c2.5,3,4.1,6.9,5.9,10.3c0.1,0.1,0.1,0.1,0,0c-0.1-0.1-0.2-0.1-0.4-0.2c-0.4-0.1-0.8,0-1,0.2c0.9-1.5,1-3.6,1.1-5.5
			c0.5-12.1-10-20.4-20.9-23.5c-6.4-1.9-13.2-1.5-19.7-0.1c-12.6,2.5-24.7,7.3-35.6,14c-0.9,0.5-2,1.3-2.9,1.5
			c-0.2-0.1-0.8,0.5-2.1-1c-0.2-0.4-0.3-0.9-0.2-1.5c0.1-0.6,0.2-0.6,0.2-0.6c0.5-0.9,1.6-1.4,2.4-2c7-4.5,14.1-9,20.8-13.8
			c2.5-1.7,4.8-3.5,7.2-5.4c1.8-1.4,4.3-3.3,6.9-3.6c4.2-0.5,8.2,1.3,12,2.8c4.1,1.8,8.4,4,12.4,5.9c1.8,0.8,3.8,2,5.4,2.5
			c-0.1,0-0.6,0.1-1,0.5c-0.3,0.4-0.3,0.7-0.3,0.7c-1.5-3.8-4.9-7.5-7.8-10.6c-0.8-0.9-2.3-2.2-3.2-3c-2.6-2.3-5.8-5.3-8.4-7.6
			c-4.9-3.8-12.1-1.9-17.6,0.1c-5.3,1.9-11.3,5.3-15.6,8.1c-7.4,5.6-14.6,11.2-22.4,16.3c-1.3,0.8-2.7,1.7-4.3,2.3
			c-0.5,0.2-1.5,0.2-2.1-0.1c-0.9-0.4-1.4-1.7-1.2-2.5c0.2-0.9,0.8-1.6,1.4-2.2c4.7-5.1,9.1-10.1,13-15.8c2.8-3.8,4.9-7.6,7.8-11.5
			c3.3-4.2,9.5-5.2,14.5-4.3c4.7,0.9,8.8,2.1,13.5,2.6c3,0.3,6.2,0.9,9.1,0.2c0.1,0,0-0.1-0.1,0.1c-0.1,0.1-0.2,0.3-0.2,0.5
			c0,0,0,0.1,0,0.1c0.1,0.2-0.1-0.2-0.3-0.6c-2.7-3.3-6.3-5.6-10.3-7.3c-3.9-1.7-8.5-3.9-12.4-5.1c-6.1-1.4-12.9,1.3-18.4,4.1
			c-14.5,6.4-24.1,20-28.4,35.1c-1.4,4.7-2.3,9.5-2.7,14.3c-9.4,4.6-19.3,8.3-29.2,11.5c-9.5,3.1-19.4,5.5-29.1,7.7
			c-10.3,2.5-20.4,6.2-30.9,8.2c-1,0.1-2.3,0.4-3.2-0.4c-0.4-0.3-0.5-0.7-0.7-1c-0.8-3.1-0.3-6.4,0-9.5
			C543.2,589,543,582.7,543.2,578.3L543.2,578.3z"/>
		<path d="M602,269.8c-17.6-0.4-23.2-22.1-7-30.1c0,0,0.1,3.7,0.1,3.7c-2.9-1.1-5.9-1.8-8.9-1.9c-19.6-1-34.2,18.9-27.1,37.3
			c9,23.4,41.5,23.8,51.3,0.8c1.8-5.1,3.2-10.4,2.8-15.8c0,0,1.5,0.4,1.5,0.4C611.6,267.7,606.8,269.8,602,269.8L602,269.8z
			 M602,269.8c5.6,0,10.1-3.5,12.3-8.5c2.5,7,2.7,15.3-1.2,22c-15.5,28.9-58.1,19.2-59.7-13.4c-0.8-22.5,22.3-38.7,43.2-30.3
			c0,0,4.4,1.7,4.4,1.7l-4.2,2c-2.6,1.3-4.9,3.4-6.2,6C586.1,258.3,591.2,269.7,602,269.8L602,269.8z"/>
		<path d="M591.4,220c21.2,0.1,39.7,9.7,47.9,30c14.1,34-11,71.6-47.9,71.6c-36.8,0-62-37.6-47.9-71.6
			C552,229.6,570,220.2,591.4,220L591.4,220z M591.4,220c-13-0.1-25.3,6.6-33.8,16c-4.3,4.5-8,9.7-10.4,15.5
			c-13,31.4,10.2,66.1,44.2,66.1c26.1,0.2,48-21.7,47.8-47.8c0-12.5-5.1-25-14-33.8C616.7,226.6,604.4,219.9,591.4,220L591.4,220z"
			/>
		<path d="M489.3,238.4c-8.2-13.6-25.2-23.8-40.8-25.6c-5.4-0.6-10.9-0.2-16,1.3c0,0,0.6-3.2,0.6-3.2c9.6,6.6,19.3,15.2,28.2,22.7
			c0,0-11.3-4.5-11.3-4.5c-6.8-2.7-13.8-4.8-20.9-6.3c-6.8-1.7-14-1-20.2,2.4c-6.2,3.6-11.5,8.7-16.9,13.5
			c-5.4,5-10.6,10.2-15.9,15.4c0,0-0.3-3.1-0.3-3.1l20.3,12.2l6.4,3.9l-7.5-0.1c-10.3-0.2-20.6-0.6-30.9-2.3c0,0,1.7-0.5,1.7-0.5
			c-6.3,5.8-12.9,11.3-20.3,16c0,0,0.2-3.2,0.2-3.2l12.1,9.7c0,0,7.6,6.1,7.6,6.1c-9-2.4-19-5.1-27.4-9.2c0,0,1.8-0.1,1.8-0.1
			c-3.9,2.2-8.1,4.1-12.3,5.5c-4.1,1.5-8.6,2.5-12.7,3.7c-0.8,0.2-1.5,0.5-2.1,0.9c0.2-0.2,0.3-0.6,0.2-0.8c1.2,2,3.2,3.5,5.2,5.1
			c10.3,7.5,22.5,12.8,35.1,14.9c8.4,1.4,17.1,1,24.9-1.8c0,0-1,0.9-1,0.9c3.6-6,7-12.2,10.2-18.4l7.8-15.1l-4.1,16.5l-4.1,16.6
			c0,0-2.6-2.4-2.6-2.4c7.5-2.6,14.7-6.2,21.6-10.2c34.4-20.1,26.6-25,49.3-51.5c0,0,7.4-8.2,7.4-8.2c-4.2,10.7-8.7,22.3-12.3,33.2
			c0,0-2.2-1.6-2.2-1.6c13.2-8.6,28.9-14,43-20.8c2-1.1,4-2.1,5.7-3.7c-1.6,1.6-3.6,2.8-5.5,4c-15,8.3-31.2,14.7-44.9,25.1
			c0,0,1.1-4,1.1-4c2.2-7.9,4.6-15.7,7.3-23.5c0,0,3.4,2,3.4,2c-2.6,3-5.2,6.1-7.5,9.3c-5,6.4-8.8,13.7-13.7,20.1
			c-5.1,6.6-11.7,11.8-18.7,16.3c-10.2,6.8-21,12.9-32.6,17.1c0,0-3.5,1.2-3.5,1.2c0.5-2.1,4.4-17.7,5-20.2c0,0,3.7,1.4,3.7,1.4
			c-3.3,6.3-6.7,12.5-10.4,18.6c0,0-0.4,0.6-0.4,0.6s-0.7,0.2-0.7,0.2c-17.4,6.1-36.5,1.4-52.3-6.6c-5-2.6-27.9-15.3-13.4-19.2
			c8.7-2.3,17.3-4.7,25.1-9.4c5.9,2.8,12.1,5.1,18.4,6.8c0,0-1.8,3.5-1.8,3.5c-1.4-1.1-13.3-10.7-14.4-11.6
			c8.2-5,15.7-11.2,22.8-17.7c10.3,1.8,20.7,2.2,31.3,2.4c0,0-1.1,3.7-1.1,3.7c-1-0.6-22.3-13.4-22.5-13.5
			c5.9-5.8,11.7-11.6,17.8-17.3c5.6-5.1,11.1-10.3,17.7-14.1c6.9-3.8,15.3-4.6,22.9-2.8c7.4,1.5,14.6,3.7,21.6,6.5c0,0-2,3.4-2,3.4
			c-7.1-5.8-14.3-11.6-21.4-17.3c0,0,3.6-0.8,3.6-0.8c11.3-2.6,23.3-0.3,33.5,4.9C475,220.7,484.1,228.3,489.3,238.4L489.3,238.4z"
			/>
		<path d="M430.5,160.7c-4.9,0-12.1,0.4-17.1,0.6c0,0,0.4-0.7,0.4-0.7c9.3,13.1,21.1,24.3,33.9,33.9c4.9,3.3,10.3,5.9,15.9,7.6
			c5.8,1.7,11.7,3.8,17.3,6.2c6.4,2.6,14.2,6.9,20.3,10.2c-11.3-1.4-23.2-2.6-34.6-3.1c0,0,1.4-3.5,1.4-3.5
			c5.7,5.1,10.8,10.7,15.6,16.6c0,0,7,8.8,7,8.8c2.7,3.3,5.3,6.3,8.8,8.2c-1,3.9-2,7.6-3.7,11.3c0.4-0.5-11,26.6-10.9,26.6
			c0,0-3.2-2.3-3.2-2.3c7.4-6.5,13.7-13.9,18.7-22.3c3.2-4.5,5.3-9.9,7-15.2c0,0,0.2-0.5,0.2-0.5s0.4-0.4,0.4-0.4
			c3.9-3.5,7-8.1,9.4-12.9c7.2-14.2,9.4-32.2,1.6-46.6c0,0,3.6-0.2,3.6-0.2c-3.1,7.4-6.4,14.8-10.1,21.9l-5.4,10.7l1.7-11.9
			c1-7.2,1.4-14.5,1-21.8c-0.1-3.6-0.6-6.9-1.9-10.2c-3.7-10.2-14.1-15.9-22.6-21.8c-6.2-4-12.5-7.7-18.9-11.6c0,0,2.9-1.1,2.9-1.1
			l-6.9,22.6l-2.2,7.2c-2.8-12.5-5.8-25.1-7-37.9c0,0,0.9,1.5,0.9,1.5c-7.1-4.7-14.1-9.8-20.5-15.7c0,0,3.2-0.6,3.2-0.6
			c-2.6,5.6-8.1,17.8-10.6,23.2c0.3-9.4,0.5-19.9,2.4-29c0,0,0.5,1.7,0.5,1.7c-3.1-3.3-5.9-6.9-8.3-10.6c-2.4-3.6-4.5-7.7-6.7-11.4
			c-0.3-0.4-0.5-0.8-0.8-1.2c-0.2-0.3-0.6-0.6-0.5-0.6c0.1,0.1,0.4,0.1,0.6,0.1c0.2,0,0.3-0.2,0.1,0c-1.6,1.6-2.6,4-3.6,6.2
			c-1.7,3.9-3.1,8-4.2,12.1c-4.5,16.9-3.8,35.8,4.5,49.9C416.1,156.5,424.6,159.1,430.5,160.7L430.5,160.7z M430.5,160.7
			c-6.1-1.7-14.5-3.5-20.8-5c-13-17.6-11.2-45-3.7-64.7c1.3-2.9,4.2-10.4,8.5-8.2c1.5,1,2,2,2.8,3.2c1.2,2,2.2,3.9,3.3,5.8
			c3.1,5.6,6.8,10.9,11.2,15.6c0,0,0.7,0.7,0.7,0.7c-1.2,6.4-1.9,13-2.2,19.5c0,0-3.8-0.9-3.8-0.9l6.5-14.3c0,0,1.1-2.5,1.1-2.5
			s2,1.9,2,1.9c6.3,5.9,13.5,11,20.7,15.8c0.9,10.4,3,20.7,5.3,31c0,0-3.9-0.1-3.9-0.1l6.9-22.6l0.7-2.4c7,4.3,14.2,8.5,21.1,13
			c6.3,4.2,12.7,8.3,18,13.7c5.4,5.7,8.2,13.7,8.3,21.5c0.4,7.5,0,15.1-1,22.5c0,0-3.8-1.2-3.8-1.2c3.6-7.1,6.9-14.3,9.9-21.7
			l1.6-3.9c7.1,11.8,9,24.3,6.2,37.7c-2.5,11.3-7.3,22.3-16,30.4c0,0,0.6-0.9,0.6-0.9c-1.6,5.5-4.4,12-7.4,16.2
			c-2.6,4.3-5.5,8.5-8.8,12.4c-3.3,3.9-6.9,7.5-10.7,10.9c0,0-6.5,5.8-6.5,5.8c2-5,12.1-29.2,14.3-34.7c1.4-2.8,2.3-6.1,3.1-9.2
			c0,0,0.9,2.2,0.9,2.2c-6.1-3.9-11-11.8-15.6-17.1c-5.7-7.2-12.4-13.8-19.3-19.9c10,0.4,20.1,1,30.1,2.2c0,0-1.2,3.7-1.2,3.7
			c-7-3.8-14.5-6.7-22-9.3c-3.5-1.2-8.3-2.7-11.5-4.3c-7.6-3.4-14-8.8-19.9-14.5c-8.8-8.4-17.2-17.5-23.6-27.9c0,0-0.5-0.7-0.5-0.7
			s0.8,0,0.8,0C418.6,160.5,425.4,160.7,430.5,160.7L430.5,160.7z"/>
		<path d="M676.3,218.3c-1-8.6,5.3-15.6,13.1-18.1c0,0,0,1.5,0,1.5c-10.2-3-20.9-5.6-31.4-7.6c0,0,7.8-1.3,7.8-1.3
			c8.1-1.3,16.3-1.8,24.5-1.6c4,0.1,7.9,0.5,11.9,0.2c7.9-0.4,15.5-2.9,22.8-5.9c11.1-4.4,22-9.7,31.6-16.8c0,0,0.5,3.5,0.5,3.5
			c-7.8-2.9-23.3-8.7-31-11.6c11.4,1.2,25.6,3,36.9,3.7c0,0-1.3,0.4-1.3,0.4c13.8-10.1,20.4-27.6,22.6-44.2
			c0.7-6.4,1.3-13.3-0.5-19.4c-0.1-0.2-0.1-0.4-0.2-0.4c0,0-0.1-0.1-0.1-0.1c0.1,0.2,0.6,0.3,0.8,0.3c-0.6,0.2-1.3,0.8-1.9,1.3
			c-3.3,2.7-6.7,5.8-10.2,8.4c-3.6,2.7-7.5,5.1-11.5,7l1.1-1.4c-1.5,9.2-4.9,19.1-7.9,28c-0.5-5.9-1.5-19.4-2-25.4
			c0,0,2.8,1.7,2.8,1.7c-8,3.4-16.3,5.7-24.6,7.6l1.4-1.1c-5.6,11.6-12.8,22.4-19.8,33.1c0,0,0.5-7.6,0.5-7.6l1.5-23.5
			c0,0,2.4,2.1,2.4,2.1c-10.9,2.1-21.7,3.9-32.4,7c-6.8,1.8-13.6,4.4-18.2,9.9c-2.3,2.7-3.9,5.6-5.3,9c-2.7,6.8-5.1,13.7-6.9,20.7
			c0,0-2.6,10-2.6,10l-0.8-10.2c-0.6-8-1-16-1.1-24c0,0,1.6,0.8,1.6,0.8c-6.5,4.3-10.6,11.6-12.1,19.1c-0.1,0.6-0.4,2.6-0.5,3.2
			c-0.1,0.9-0.1,2.4-0.2,3.2c0,1.4,0.1,2.9,0.1,4.3c-0.3-2.4-0.4-5.1-0.4-7.6c0.3-6.3,2.1-12.4,5.8-17.6c2-2.9,4.7-5.5,7.7-7.6
			c0.7,8.6,1.4,17.2,2.6,25.7c0,0-3.4-0.2-3.4-0.2c0.7-3.7,1.6-7.3,2.7-10.9c7.8-25.3,16.1-28.9,40.8-34.5
			c8.1-1.8,16.3-3.2,24.4-4.8c0,0.5-1.6,24.9-1.7,26.2c0,0-3.7-1.2-3.7-1.2c5.6-8.5,11-17.2,15.4-26.3c0,0,0.4-0.9,0.4-0.9
			s0.9-0.2,0.9-0.2c9.1-2,18-4.7,26.5-8.5c0,0,0.2,2.7,0.2,2.7l1.2,15.7l-3.9-0.5c2.1-6.2,3.7-12.6,4.8-19c0,0,0.9-0.4,0.9-0.4
			c3.8-1.9,7.5-4.1,10.9-6.7c4.1-2.9,7.5-6.4,11.6-9.4c0.7-0.5,2-1.2,3.2-1c1,0.1,2,0.8,2.4,1.6c1.5,2.8,1.6,6.1,1.9,9
			c0.5,13.5-2.3,27-7.9,39.3c-3.9,8.3-9.7,16.1-17.5,21.5c0,0-0.7,0-0.7,0c-7.1-0.4-14.2-1.1-21.2-1.9c0,0,0.9-3.9,0.9-3.9l16,6
			c0,0,3.4,1.3,3.4,1.3c-14.1,10.8-30.3,18.4-47.2,23.7c-7.9,2.3-16.5,2.5-24.7,2c-8-0.3-16-0.4-24,0.4c0,0,0.1-2.9,0.1-2.9
			c8,2.1,15.8,4.7,23.5,7.4c0,0,2.4,0.8,2.4,0.8C683.5,202.8,675.9,208.7,676.3,218.3L676.3,218.3z"/>
		<path d="M676.2,137.9c-10.2-9.3-8-14.8-7.7-27.1c0-1.4,0.1-3.7-0.2-4.6c0.1,0.1,0.3,0.2,0.4,0.2c0.2,0-0.1,0-0.3,0.2
			c-8.8,4-18,8.4-27.1,11.9c7.9-10.1,15.8-20.5,24.8-29.6c0,0-0.6,1.6-0.6,1.6c-0.9-8.5-1.5-17.1-0.9-25.7l2.5,2.1
			c-5.8,1.5-18.7,5-24.4,6.5c7.3-5.8,15.4-12.2,23.5-16.6c0,0-1,1.5-1,1.5c0.8-6.7,2.6-13.2,5.1-19.5c1-2.8,2.5-5.5,2.9-8.3
			c0,0.1,0.2,0.4,0.3,0.5c0.2,0.2,0.3,0.2,0.1,0.1c-2.3-0.2-4.7,0.5-7.1,1.2c-19.6,6.4-39.7,20.3-46.1,40.7c0,0-0.1-1.4-0.1-1.4
			c4.4,10.6,10.9,23.7,16.1,34c-5.4-6.4-16.2-19.3-21.6-25.8c0,0,3.4-0.7,3.4-0.7c-3.5,11.4-4.9,23.5-5.4,35.4
			c-0.7,9.8,0.1,19.8,3.8,29c2.2,5.5,4.7,11.6,6.2,17.3c1.1,4,2,8,2.7,12l-2.9,0.6c-0.5-1.7-1.9-2.9-2.9-4.5c0,0-3.2-5.1-3.2-5.1
			c-2.2-3.2-3.3-7.4-6.5-9.6c0,0,0.9-0.5,0.9-0.5c-0.2,1,0.1,2.3,0.4,3.6c0.7,3.9-0.3,8.1-2.5,11.4c1.3-2.3,2-4.8,2-7.4
			c0-1.3-0.1-2.6-0.5-3.8c-0.3-1.2-0.9-2.5-0.7-4.1c0,0,0.1-0.9,0.1-0.9c4.3,1.8,6,6.5,8.5,9.9c0,0,3.6,4.8,3.6,4.8
			c0.8,1.1,2.1,2.3,2.9,3.5c0.3,0.5,0.6,1,0.8,1.8c0,0-2.9,0.6-2.9,0.6c-1.9-7.8-4.8-15.3-7.5-22.8c-1.4-3.5-3.3-8-4.2-11.6
			c-2.3-8-2.6-16.4-2.1-24.7c0.5-12.3,2-24.6,5.6-36.4c0,0,1.1-3.5,1.1-3.5c1.4,1.6,11.7,14,13.4,15.9c0,0-3.3,2.2-3.3,2.2
			c-3.3-6.6-6.2-13.3-9.1-20.1c6.6-22.2,27.9-37.1,49-44.1c3.2-0.8,10.7-3.4,11.7,1.4c0.2,1.8-0.3,2.8-0.7,4.2
			c-0.8,2.2-1.6,4.2-2.4,6.2c-2.3,6-4.1,12.2-4.8,18.6c0,0-0.1,1-0.1,1c-5.7,3.2-11.2,6.8-16.3,10.8c0,0-1.8-3.5-1.8-3.5l15.2-4
			c0,0,2.7-0.7,2.7-0.7l-0.2,2.8c-0.5,8.6,0,17.3,1,26c-7.4,7.4-14.1,15.5-20.4,23.9c0,0-2.4-3.1-2.4-3.1c4.5-2,9.1-3.6,13.7-5.4
			c2.3-0.9,4.5-1.8,6.9-2.6c2.5-1,3.9,0.9,3.8,3.3c0,6.1-1.8,12.1-1.6,18.2C670.1,130.2,673,134.4,676.2,137.9L676.2,137.9z"/>
	</g>
</g>
</svg>
