<svg width="38" height="38" viewBox="0 0 38 38" fill="none" xmlns="http://www.w3.org/2000/svg">
<g clip-path="url(#clip0_40_62)">
<path d="M33.7778 0H4.22222C1.89035 0 0 1.89035 0 4.22222V33.7778C0 36.1096 1.89035 38 4.22222 38H33.7778C36.1096 38 38 36.1096 38 33.7778V4.22222C38 1.89035 36.1096 0 33.7778 0Z" fill="black"/>
<path fill-rule="evenodd" clip-rule="evenodd" d="M31.9116 7.08137V11.9952L28.9952 12.0028C26.7092 12.0028 26.2687 13.0889 26.2687 14.6762V18.1926H31.7142L31.0078 23.6913H26.2687V38H20.5885V23.6913H15.8333V18.1926H20.5885V14.137C20.5885 9.42817 23.4586 6.86111 27.6661 6.86111C29.6719 6.86111 31.4028 7.01301 31.9116 7.08137Z" fill="white"/>
</g>
<defs>
<clipPath id="clip0_40_62">
<rect width="38" height="38" fill="white"/>
</clipPath>
</defs>
</svg>
