<svg width="42" height="42" viewBox="0 0 42 42" fill="none" xmlns="http://www.w3.org/2000/svg">
<g clip-path="url(#clip0_40_56)">
<path d="M21 4.06055C26.5207 4.06055 27.1688 4.08516 29.3508 4.1836C31.3688 4.27383 32.4598 4.61016 33.1898 4.89727C34.1578 5.27462 34.8469 5.71758 35.5688 6.43946C36.2906 7.16133 36.7418 7.8504 37.1109 8.81837C37.3899 9.54844 37.7344 10.6395 37.8246 12.6574C37.9231 14.8395 37.9477 15.4875 37.9477 21.0082C37.9477 26.5289 37.9231 27.177 37.8246 29.359C37.7344 31.377 37.3981 32.468 37.1109 33.1981C36.7336 34.166 36.2906 34.8551 35.5688 35.577C34.8469 36.2988 34.1578 36.75 33.1898 37.1191C32.4598 37.3981 31.3688 37.7426 29.3508 37.8328C27.1688 37.9313 26.5207 37.9559 21 37.9559C15.4793 37.9559 14.8313 37.9313 12.6492 37.8328C10.6313 37.7426 9.54024 37.4063 8.81016 37.1191C7.84219 36.7418 7.15313 36.2988 6.43126 35.577C5.70938 34.8551 5.25821 34.166 4.88907 33.1981C4.61016 32.468 4.26563 31.377 4.1754 29.359C4.07696 27.177 4.05235 26.5289 4.05235 21.0082C4.05235 15.4875 4.07696 14.8395 4.1754 12.6574C4.26563 10.6395 4.60196 9.54844 4.88907 8.81837C5.26641 7.8504 5.70938 7.16133 6.43126 6.43946C7.15313 5.71758 7.84219 5.26641 8.81016 4.89727C9.54024 4.61837 10.6313 4.27383 12.6492 4.1836C14.8313 4.07696 15.4793 4.06055 21 4.06055ZM21 0.336334C15.3891 0.336334 14.6836 0.360944 12.477 0.459381C10.2785 0.557819 8.77735 0.910553 7.46485 1.41915C6.10313 1.94415 4.95469 2.65782 3.80626 3.80626C2.65782 4.95469 1.95235 6.11133 1.41915 7.46485C0.910553 8.77735 0.557819 10.2785 0.459381 12.4852C0.360944 14.6836 0.336334 15.3891 0.336334 21C0.336334 26.6109 0.360944 27.3164 0.459381 29.5231C0.557819 31.7215 0.910553 33.2227 1.41915 34.5434C1.94415 35.9051 2.65782 37.0535 3.80626 38.202C4.95469 39.3504 6.11133 40.0559 7.46485 40.5891C8.77735 41.0977 10.2785 41.4504 12.4852 41.5488C14.6918 41.6473 15.3891 41.6719 21.0082 41.6719C26.6273 41.6719 27.3246 41.6473 29.5313 41.5488C31.7297 41.4504 33.2309 41.0977 34.5516 40.5891C35.9133 40.0641 37.0617 39.3504 38.2102 38.202C39.3586 37.0535 40.0641 35.8969 40.5973 34.5434C41.1059 33.2309 41.4586 31.7297 41.557 29.5231C41.6555 27.3164 41.6801 26.6191 41.6801 21C41.6801 15.3809 41.6555 14.6836 41.557 12.477C41.4586 10.2785 41.1059 8.77735 40.5973 7.45665C40.0723 6.09493 39.3586 4.94649 38.2102 3.79805C37.0617 2.64962 35.9051 1.94415 34.5516 1.41094C33.2391 0.90235 31.7379 0.549615 29.5313 0.451178C27.3164 0.360944 26.6109 0.336334 21 0.336334Z" fill="black"/>
<path d="M21 10.3852C15.143 10.3852 10.3852 15.1348 10.3852 21C10.3852 26.8652 15.143 31.6148 21 31.6148C26.857 31.6148 31.6148 26.857 31.6148 21C31.6148 15.143 26.857 10.3852 21 10.3852ZM21 27.8906C17.1938 27.8906 14.1094 24.8063 14.1094 21C14.1094 17.1938 17.1938 14.1094 21 14.1094C24.8063 14.1094 27.8906 17.1938 27.8906 21C27.8906 24.8063 24.8063 27.8906 21 27.8906Z" fill="black"/>
<path d="M32.0332 12.4441C33.4014 12.4441 34.5106 11.335 34.5106 9.9668C34.5106 8.5986 33.4014 7.48946 32.0332 7.48946C30.665 7.48946 29.5559 8.5986 29.5559 9.9668C29.5559 11.335 30.665 12.4441 32.0332 12.4441Z" fill="black"/>
</g>
<defs>
<clipPath id="clip0_40_56">
<rect width="42" height="42" fill="white"/>
</clipPath>
</defs>
</svg>
