{
	"asset":{
		"version":"2.0",
		"generator":"Maxon Cinema 4D 2025.0.2 (#200000219)"
	},
	"scenes":[{
		"nodes":[0,
		1,
		2,
		3]
	}],
	"nodes":[{
		"name":"BR_RANA",
		"mesh":0,
		"translation":[-1.0590351819992066,
		-0.9594201445579529,
		-0.5446719527244568],
		"rotation":[0.0,
		0.0,
		0.0,
		-1.0],
		"scale":[1.0,
		1.0,
		1.0]
	},
	{
		"name":"BL_RANA",
		"mesh":1,
		"translation":[-1.0590351819992066,
		-0.9594201445579529,
		0.6326962113380432],
		"rotation":[0.0,
		0.0,
		0.0,
		-1.0],
		"scale":[1.0,
		1.0,
		1.0]
	},
	{
		"name":"FR_RANA",
		"mesh":2,
		"translation":[1.0103905200958253,
		-0.9594201445579529,
		-0.6531884670257568],
		"rotation":[0.0,
		0.0,
		0.0,
		-1.0],
		"scale":[1.0,
		1.0,
		1.0]
	},
	{
		"name":"FL_RANA",
		"mesh":3,
		"translation":[1.0056943893432618,
		-0.9594201445579529,
		0.8244274258613586],
		"rotation":[0.0,
		0.0,
		0.0,
		-1.0],
		"scale":[1.0,
		1.0,
		1.0]
	}],
	"meshes":[{
		"name":"BR_RANA",
		"primitives":[{
			"attributes":{
				"POSITION":1,
				"NORMAL":2,
				"TEXCOORD_0":3
			},
			"indices":0
		}]
	},
	{
		"name":"BL_RANA",
		"primitives":[{
			"attributes":{
				"POSITION":5,
				"NORMAL":6,
				"TEXCOORD_0":7
			},
			"indices":4
		}]
	},
	{
		"name":"FR_RANA",
		"primitives":[{
			"attributes":{
				"POSITION":9,
				"NORMAL":10,
				"TEXCOORD_0":11
			},
			"indices":8
		}]
	},
	{
		"name":"FL_RANA",
		"primitives":[{
			"attributes":{
				"POSITION":13,
				"NORMAL":14,
				"TEXCOORD_0":15
			},
			"indices":12
		}]
	}],
	"accessors":[{
		"bufferView":0,
		"max":[3167],
		"type":"SCALAR",
		"componentType":5123,
		"count":3168,
		"byteOffset":0,
		"min":[0]
	},
	{
		"bufferView":1,
		"max":[0.2915012538433075,
		0.0648549497127533,
		0.2110901176929474],
		"type":"VEC3",
		"componentType":5126,
		"count":3168,
		"byteOffset":0,
		"min":[-0.20276108384132386,
		-0.09519069641828537,
		-0.312444269657135]
	},
	{
		"bufferView":1,
		"max":[0.9999998807907105,
		0.9999939203262329,
		0.999965488910675],
		"type":"VEC3",
		"componentType":5126,
		"count":3168,
		"byteOffset":12,
		"min":[-0.999785304069519,
		-0.9999920129776001,
		-0.9999069571495056]
	},
	{
		"bufferView":1,
		"max":[1.0,
		1.0],
		"type":"VEC2",
		"componentType":5126,
		"count":3168,
		"byteOffset":24,
		"min":[0.0078125,
		0.0]
	},
	{
		"bufferView":2,
		"max":[3167],
		"type":"SCALAR",
		"componentType":5123,
		"count":3168,
		"byteOffset":0,
		"min":[0]
	},
	{
		"bufferView":3,
		"max":[0.2915012538433075,
		0.0648549497127533,
		0.2110901176929474],
		"type":"VEC3",
		"componentType":5126,
		"count":3168,
		"byteOffset":0,
		"min":[-0.20276108384132386,
		-0.09519069641828537,
		-0.312444269657135]
	},
	{
		"bufferView":3,
		"max":[0.9999998807907105,
		0.9999939203262329,
		0.999965488910675],
		"type":"VEC3",
		"componentType":5126,
		"count":3168,
		"byteOffset":12,
		"min":[-0.999785304069519,
		-0.9999920129776001,
		-0.9999069571495056]
	},
	{
		"bufferView":3,
		"max":[1.0,
		1.0],
		"type":"VEC2",
		"componentType":5126,
		"count":3168,
		"byteOffset":24,
		"min":[0.0078125,
		0.0]
	},
	{
		"bufferView":4,
		"max":[3167],
		"type":"SCALAR",
		"componentType":5123,
		"count":3168,
		"byteOffset":0,
		"min":[0]
	},
	{
		"bufferView":5,
		"max":[0.2915012538433075,
		0.0648549497127533,
		0.2110901176929474],
		"type":"VEC3",
		"componentType":5126,
		"count":3168,
		"byteOffset":0,
		"min":[-0.20276108384132386,
		-0.09519069641828537,
		-0.312444269657135]
	},
	{
		"bufferView":5,
		"max":[0.9999998807907105,
		0.9999939203262329,
		0.999965488910675],
		"type":"VEC3",
		"componentType":5126,
		"count":3168,
		"byteOffset":12,
		"min":[-0.999785304069519,
		-0.9999920129776001,
		-0.9999069571495056]
	},
	{
		"bufferView":5,
		"max":[1.0,
		1.0],
		"type":"VEC2",
		"componentType":5126,
		"count":3168,
		"byteOffset":24,
		"min":[0.0078125,
		0.0]
	},
	{
		"bufferView":6,
		"max":[3167],
		"type":"SCALAR",
		"componentType":5123,
		"count":3168,
		"byteOffset":0,
		"min":[0]
	},
	{
		"bufferView":7,
		"max":[0.2915012538433075,
		0.0648549497127533,
		0.2110901176929474],
		"type":"VEC3",
		"componentType":5126,
		"count":3168,
		"byteOffset":0,
		"min":[-0.20276108384132386,
		-0.09519069641828537,
		-0.312444269657135]
	},
	{
		"bufferView":7,
		"max":[0.9999998807907105,
		0.9999939203262329,
		0.999965488910675],
		"type":"VEC3",
		"componentType":5126,
		"count":3168,
		"byteOffset":12,
		"min":[-0.999785304069519,
		-0.9999920129776001,
		-0.9999069571495056]
	},
	{
		"bufferView":7,
		"max":[1.0,
		1.0],
		"type":"VEC2",
		"componentType":5126,
		"count":3168,
		"byteOffset":24,
		"min":[0.0078125,
		0.0]
	}],
	"bufferViews":[{
		"buffer":0,
		"byteOffset":0,
		"byteLength":6336,
		"target":34963
	},
	{
		"buffer":0,
		"byteOffset":6336,
		"byteLength":101376,
		"target":34962,
		"byteStride":32
	},
	{
		"buffer":1,
		"byteOffset":0,
		"byteLength":6336,
		"target":34963
	},
	{
		"buffer":1,
		"byteOffset":6336,
		"byteLength":101376,
		"target":34962,
		"byteStride":32
	},
	{
		"buffer":2,
		"byteOffset":0,
		"byteLength":6336,
		"target":34963
	},
	{
		"buffer":2,
		"byteOffset":6336,
		"byteLength":101376,
		"target":34962,
		"byteStride":32
	},
	{
		"buffer":3,
		"byteOffset":0,
		"byteLength":6336,
		"target":34963
	},
	{
		"buffer":3,
		"byteOffset":6336,
		"byteLength":101376,
		"target":34962,
		"byteStride":32
	}],
	"buffers":[{
		"uri":"data:application/octet-stream;base64,",
		"byteLength":107712
	},
	{
		"uri":"data:application/octet-stream;base64,",
		"byteLength":107712
	},
	{
		"uri":"data:application/octet-stream;base64,",
		"byteLength":107712
	},
	{
		"uri":"data:application/octet-stream;base64,",
		"byteLength":107712
	}]
}