{
	"asset":{
		"version":"2.0",
		"generator":"Maxon Cinema 4D 2025.0.2 (#200000219)"
	},
	"scenes":[{
		"nodes":[0,
		1,
		2,
		3]
	}],
	"nodes":[{
		"name":"BR_Pata1",
		"mesh":0,
		"translation":[-1.1486790180206299,
		-1.0017011165618897,
		-0.6507490873336792],
		"rotation":[0.0,
		0.0,
		0.0,
		-1.0],
		"scale":[1.0,
		1.0,
		1.0]
	},
	{
		"name":"BR_Pata1",
		"mesh":1,
		"translation":[-1.1486790180206299,
		-0.9848649501800537,
		0.5567712783813477],
		"rotation":[0.0,
		0.0,
		0.0,
		-1.0],
		"scale":[1.0,
		1.0,
		1.0]
	},
	{
		"name":"FR_Pata1",
		"mesh":2,
		"translation":[0.9402887225151062,
		-0.9506101608276367,
		-0.7458471655845642],
		"rotation":[0.0,
		0.0,
		0.0,
		-1.0],
		"scale":[1.0,
		1.0,
		1.0]
	},
	{
		"name":"FL_Pata1",
		"mesh":3,
		"translation":[0.9402887225151062,
		-0.9506101608276367,
		0.7463840842247009],
		"rotation":[0.0,
		0.0,
		0.0,
		-1.0],
		"scale":[1.0,
		1.0,
		1.0]
	}],
	"meshes":[{
		"name":"BR_Pata1",
		"primitives":[{
			"attributes":{
				"POSITION":1,
				"NORMAL":2,
				"TEXCOORD_0":3
			},
			"indices":0
		}]
	},
	{
		"name":"BR_Pata1",
		"primitives":[{
			"attributes":{
				"POSITION":5,
				"NORMAL":6,
				"TEXCOORD_0":7
			},
			"indices":4
		}]
	},
	{
		"name":"FR_Pata1",
		"primitives":[{
			"attributes":{
				"POSITION":9,
				"NORMAL":10,
				"TEXCOORD_0":11
			},
			"indices":8
		}]
	},
	{
		"name":"FL_Pata1",
		"primitives":[{
			"attributes":{
				"POSITION":13,
				"NORMAL":14,
				"TEXCOORD_0":15
			},
			"indices":12
		}]
	}],
	"accessors":[{
		"bufferView":0,
		"type":"SCALAR",
		"componentType":5123,
		"min":[0],
		"count":2016,
		"byteOffset":0,
		"max":[2015]
	},
	{
		"bufferView":1,
		"type":"VEC3",
		"componentType":5126,
		"min":[-0.06720907986164093,
		-0.08631079643964768,
		-0.16786424815654756],
		"count":2016,
		"byteOffset":0,
		"max":[0.44942888617515566,
		0.08444039523601532,
		0.24777968227863313]
	},
	{
		"bufferView":1,
		"type":"VEC3",
		"componentType":5126,
		"min":[-0.9982722401618958,
		-0.9999979734420776,
		-0.9944860339164734],
		"count":2016,
		"byteOffset":12,
		"max":[0.9895327687263489,
		0.9997460246086121,
		0.9946057200431824]
	},
	{
		"bufferView":1,
		"type":"VEC2",
		"componentType":5126,
		"min":[0.009818775579333306,
		0.0],
		"count":2016,
		"byteOffset":24,
		"max":[1.0,
		1.0]
	},
	{
		"bufferView":2,
		"type":"SCALAR",
		"componentType":5123,
		"min":[0],
		"count":2016,
		"byteOffset":0,
		"max":[2015]
	},
	{
		"bufferView":3,
		"type":"VEC3",
		"componentType":5126,
		"min":[-0.06720907986164093,
		-0.08631079643964768,
		-0.16786424815654756],
		"count":2016,
		"byteOffset":0,
		"max":[0.44942888617515566,
		0.08444039523601532,
		0.24777968227863313]
	},
	{
		"bufferView":3,
		"type":"VEC3",
		"componentType":5126,
		"min":[-0.9982722401618958,
		-0.9999979734420776,
		-0.9944860339164734],
		"count":2016,
		"byteOffset":12,
		"max":[0.9895327687263489,
		0.9997460246086121,
		0.9946057200431824]
	},
	{
		"bufferView":3,
		"type":"VEC2",
		"componentType":5126,
		"min":[0.009818775579333306,
		0.0],
		"count":2016,
		"byteOffset":24,
		"max":[1.0,
		1.0]
	},
	{
		"bufferView":4,
		"type":"SCALAR",
		"componentType":5123,
		"min":[0],
		"count":2016,
		"byteOffset":0,
		"max":[2015]
	},
	{
		"bufferView":5,
		"type":"VEC3",
		"componentType":5126,
		"min":[-0.06720907986164093,
		-0.08631079643964768,
		-0.16786424815654756],
		"count":2016,
		"byteOffset":0,
		"max":[0.44942888617515566,
		0.08444039523601532,
		0.24777968227863313]
	},
	{
		"bufferView":5,
		"type":"VEC3",
		"componentType":5126,
		"min":[-0.9982722401618958,
		-0.9999979734420776,
		-0.9944860339164734],
		"count":2016,
		"byteOffset":12,
		"max":[0.9895327687263489,
		0.9997460246086121,
		0.9946057200431824]
	},
	{
		"bufferView":5,
		"type":"VEC2",
		"componentType":5126,
		"min":[0.009818775579333306,
		0.0],
		"count":2016,
		"byteOffset":24,
		"max":[1.0,
		1.0]
	},
	{
		"bufferView":6,
		"type":"SCALAR",
		"componentType":5123,
		"min":[0],
		"count":2016,
		"byteOffset":0,
		"max":[2015]
	},
	{
		"bufferView":7,
		"type":"VEC3",
		"componentType":5126,
		"min":[-0.06720907986164093,
		-0.08631079643964768,
		-0.16786424815654756],
		"count":2016,
		"byteOffset":0,
		"max":[0.44942888617515566,
		0.08444039523601532,
		0.24777968227863313]
	},
	{
		"bufferView":7,
		"type":"VEC3",
		"componentType":5126,
		"min":[-0.9982722401618958,
		-0.9999979734420776,
		-0.9944860339164734],
		"count":2016,
		"byteOffset":12,
		"max":[0.9895327687263489,
		0.9997460246086121,
		0.9946057200431824]
	},
	{
		"bufferView":7,
		"type":"VEC2",
		"componentType":5126,
		"min":[0.009818775579333306,
		0.0],
		"count":2016,
		"byteOffset":24,
		"max":[1.0,
		1.0]
	}],
	"bufferViews":[{
		"buffer":0,
		"target":34963,
		"byteOffset":0,
		"byteLength":4032
	},
	{
		"buffer":0,
		"target":34962,
		"byteOffset":4032,
		"byteLength":64512,
		"byteStride":32
	},
	{
		"buffer":1,
		"target":34963,
		"byteOffset":0,
		"byteLength":4032
	},
	{
		"buffer":1,
		"target":34962,
		"byteOffset":4032,
		"byteLength":64512,
		"byteStride":32
	},
	{
		"buffer":2,
		"target":34963,
		"byteOffset":0,
		"byteLength":4032
	},
	{
		"buffer":2,
		"target":34962,
		"byteOffset":4032,
		"byteLength":64512,
		"byteStride":32
	},
	{
		"buffer":3,
		"target":34963,
		"byteOffset":0,
		"byteLength":4032
	},
	{
		"buffer":3,
		"target":34962,
		"byteOffset":4032,
		"byteLength":64512,
		"byteStride":32
	}],
	"buffers":[{
		"uri":"data:application/octet-stream;base64,",
		"byteLength":68544
	},
	{
		"uri":"data:application/octet-stream;base64,",
		"byteLength":68544
	},
	{
		"uri":"data:application/octet-stream;base64,",
		"byteLength":68544
	},
	{
		"uri":"data:application/octet-stream;base64,",
		"byteLength":68544
	}]
}