{
	"asset":{
		"version":"2.0",
		"generator":"Maxon Cinema 4D 2025.0.2 (#200000219)"
	},
	"scenes":[{
		"nodes":[0]
	}],
	"accessors":[{
		"bufferView":0,
		"type":"SCALAR",
		"componentType":5123,
		"count":5598,
		"byteOffset":0,
		"min":[0],
		"max":[5597]
	},
	{
		"bufferView":1,
		"type":"VEC3",
		"componentType":5126,
		"count":5598,
		"byteOffset":0,
		"min":[-0.17075064778327943,
		-0.21494406461715699,
		-0.660185694694519],
		"max":[1.0303852558135987,
		1.7719011306762696,
		0.6687001585960388]
	},
	{
		"bufferView":1,
		"type":"VEC3",
		"componentType":5126,
		"count":5598,
		"byteOffset":12,
		"min":[-0.9988424777984619,
		-0.9341546297073364,
		-0.9999701976776123],
		"max":[0.9845112562179565,
		0.9531128406524658,
		0.9994253516197205]
	},
	{
		"bufferView":1,
		"type":"VEC2",
		"componentType":5126,
		"count":5598,
		"byteOffset":24,
		"min":[0.0038954897318035366,
		0.003918152302503586],
		"max":[0.976893424987793,
		0.9936305284500122]
	}],
	"nodes":[{
		"scale":[1.0,
		1.0,
		1.0],
		"name":"Butterfkly_remesh",
		"mesh":0,
		"rotation":[0.0,
		0.0,
		0.0,
		-1.0],
		"translation":[-0.38662075996398928,
		1.0690927505493165,
		-0.0921144187450409]
	}],
	"meshes":[{
		"name":"Butterfkly_remesh",
		"primitives":[{
			"attributes":{
				"POSITION":1,
				"NORMAL":2,
				"TEXCOORD_0":3
			},
			"indices":0
		}]
	}],
	"bufferViews":[{
		"buffer":0,
		"byteOffset":0,
		"byteLength":11196,
		"target":34963
	},
	{
		"buffer":0,
		"byteOffset":11196,
		"byteLength":179136,
		"target":34962,
		"byteStride":32
	}],
	"buffers":[{
		"uri":"data:application/octet-stream;base64,",
		"byteLength":190332
	}]
}