{
	"asset":{
		"version":"2.0",
		"generator":"Maxon Cinema 4D 2025.0.2 (#200000219)"
	},
	"scenes":[{
		"nodes":[0]
	}],
	"nodes":[{
		"name":"Crest",
		"mesh":0,
		"translation":[1.2662196159362794,
		0.5086697340011597,
		-0.05164497718214989],
		"rotation":[0.0,
		-0.054433487355709079,
		0.0,
		-0.9985173940658569],
		"scale":[1.0,
		1.0,
		1.0]
	}],
	"meshes":[{
		"name":"Crest",
		"primitives":[{
			"attributes":{
				"POSITION":1,
				"NORMAL":2,
				"TEXCOORD_0":3
			},
			"indices":0
		}]
	}],
	"accessors":[{
		"bufferView":0,
		"type":"SCALAR",
		"componentType":5123,
		"byteOffset":0,
		"count":1026,
		"min":[0],
		"max":[1025]
	},
	{
		"bufferView":1,
		"type":"VEC3",
		"componentType":5126,
		"byteOffset":0,
		"count":1026,
		"min":[-1.9415146112442017,
		0.08554412424564362,
		-0.2808000445365906],
		"max":[-0.15515181422233582,
		2.0195364952087404,
		0.4015437066555023]
	},
	{
		"bufferView":1,
		"type":"VEC3",
		"componentType":5126,
		"byteOffset":12,
		"count":1026,
		"min":[-0.9414004683494568,
		-0.36391234397888186,
		-0.9770578742027283],
		"max":[0.9312118291854858,
		0.9916152954101563,
		0.9989209175109863]
	},
	{
		"bufferView":1,
		"type":"VEC2",
		"componentType":5126,
		"byteOffset":24,
		"count":1026,
		"min":[0.00048600000445730984,
		0.1877259910106659],
		"max":[0.9541839957237244,
		0.6991629600524902]
	}],
	"bufferViews":[{
		"buffer":0,
		"byteOffset":0,
		"byteLength":2052,
		"target":34963
	},
	{
		"buffer":0,
		"byteOffset":2052,
		"byteLength":32832,
		"target":34962,
		"byteStride":32
	}],
	"buffers":[{
		"uri":"data:application/octet-stream;base64,",
		"byteLength":34884
	}]
}