{
	"asset":{
		"version":"2.0",
		"generator":"Maxon Cinema 4D 2025.0.2 (#200000219)"
	},
	"scenes":[{
		"nodes":[0]
	}],
	"nodes":[{
		"name":"WINGS_Bird",
		"mesh":0,
		"translation":[0.34991833567619326,
		1.1524851322174073,
		-0.04196076840162277],
		"rotation":[0.0,
		0.0,
		0.0,
		-1.0],
		"scale":[1.0,
		1.0,
		1.0]
	}],
	"meshes":[{
		"name":"WINGS_Bird",
		"primitives":[{
			"attributes":{
				"POSITION":1,
				"NORMAL":2,
				"TEXCOORD_0":3
			},
			"indices":0
		}]
	}],
	"accessors":[{
		"bufferView":0,
		"type":"SCALAR",
		"componentType":5123,
		"count":9996,
		"byteOffset":0,
		"min":[0],
		"max":[9995]
	},
	{
		"bufferView":1,
		"type":"VEC3",
		"componentType":5126,
		"count":9996,
		"byteOffset":0,
		"min":[-0.43381303548812868,
		-0.5564240217208862,
		-2.268512487411499],
		"max":[0.4431176483631134,
		0.9543535709381104,
		2.3141043186187746]
	},
	{
		"bufferView":1,
		"type":"VEC3",
		"componentType":5126,
		"count":9996,
		"byteOffset":12,
		"min":[-0.9999138712882996,
		-0.9923211336135864,
		-0.9971164464950562],
		"max":[0.9963995814323425,
		0.996391773223877,
		0.9987701177597046]
	},
	{
		"bufferView":1,
		"type":"VEC2",
		"componentType":5126,
		"count":9996,
		"byteOffset":24,
		"min":[0.004794225096702576,
		0.03641049563884735],
		"max":[0.9921868443489075,
		0.9955133199691773]
	}],
	"bufferViews":[{
		"buffer":0,
		"byteOffset":0,
		"byteLength":19992,
		"target":34963
	},
	{
		"buffer":0,
		"byteOffset":19992,
		"byteLength":319872,
		"target":34962,
		"byteStride":32
	}],
	"buffers":[{
		"uri":"data:application/octet-stream;base64,",
		"byteLength":339864
	}]
}