{
	"asset":{
		"version":"2.0",
		"generator":"Maxon Cinema 4D 2025.0.2 (#200000219)"
	},
	"scenes":[{
		"nodes":[0]
	}],
	"nodes":[{
		"name":"DOG_Ears",
		"mesh":0,
		"translation":[1.6233651638031006,
		1.6447561979293824,
		-0.000037913159758318218],
		"rotation":[0.0,
		0.0,
		0.0,
		-1.0],
		"scale":[1.0,
		1.0,
		1.0]
	}],
	"meshes":[{
		"name":"DOG_Ears",
		"primitives":[{
			"attributes":{
				"POSITION":1,
				"NORMAL":2,
				"TEXCOORD_0":3
			},
			"indices":0
		}]
	}],
	"accessors":[{
		"bufferView":0,
		"type":"SCALAR",
		"componentType":5123,
		"count":1848,
		"byteOffset":0,
		"min":[0],
		"max":[1847]
	},
	{
		"bufferView":1,
		"type":"VEC3",
		"componentType":5126,
		"count":1848,
		"byteOffset":0,
		"min":[-0.24056687951087953,
		-0.44762420654296877,
		-0.8098887801170349],
		"max":[-0.03762282803654671,
		0.5064624547958374,
		0.8932176232337952]
	},
	{
		"bufferView":1,
		"type":"VEC3",
		"componentType":5126,
		"count":1848,
		"byteOffset":12,
		"min":[-0.9999180436134338,
		-0.9995560646057129,
		-0.9916079640388489],
		"max":[0.9996679425239563,
		0.99896240234375,
		0.9995471239089966]
	},
	{
		"bufferView":1,
		"type":"VEC2",
		"componentType":5126,
		"count":1848,
		"byteOffset":24,
		"min":[0.09622381627559662,
		0.08757428824901581],
		"max":[0.8893416523933411,
		0.9907175302505493]
	}],
	"bufferViews":[{
		"buffer":0,
		"byteOffset":0,
		"byteLength":3696,
		"target":34963
	},
	{
		"buffer":0,
		"byteOffset":3696,
		"byteLength":59136,
		"target":34962,
		"byteStride":32
	}],
	"buffers":[{
		"uri":"data:application/octet-stream;base64,",
		"byteLength":62832
	}]
}