{
	"asset":{
		"version":"2.0",
		"generator":"Maxon Cinema 4D 2025.0.2 (#200000219)"
	},
	"scenes":[{
		"nodes":[0]
	}],
	"nodes":[{
		"translation":[1.4888691902160645,
		1.6140096187591553,
		-0.036297135055065158],
		"name":"RABBIT_Ears",
		"mesh":0,
		"rotation":[0.0,
		0.0,
		0.0,
		-1.0],
		"scale":[1.0,
		1.0,
		1.0]
	}],
	"meshes":[{
		"name":"RABBIT_Ears",
		"primitives":[{
			"attributes":{
				"POSITION":1,
				"NORMAL":2,
				"TEXCOORD_0":3
			},
			"indices":0
		}]
	}],
	"accessors":[{
		"bufferView":0,
		"type":"SCALAR",
		"componentType":5123,
		"count":4557,
		"byteOffset":0,
		"min":[0],
		"max":[4556]
	},
	{
		"bufferView":1,
		"type":"VEC3",
		"componentType":5126,
		"count":4557,
		"byteOffset":0,
		"min":[-0.28773820400238039,
		-0.32825779914855959,
		-0.4671957790851593],
		"max":[0.21089506149291993,
		1.0421044826507569,
		0.5102165341377258]
	},
	{
		"bufferView":1,
		"type":"VEC3",
		"componentType":5126,
		"count":4557,
		"byteOffset":12,
		"min":[-0.997733473777771,
		-0.9182707071304321,
		-0.9994121193885803],
		"max":[0.9994905591011047,
		0.9584967494010925,
		0.9989179372787476]
	},
	{
		"bufferView":1,
		"type":"VEC2",
		"componentType":5126,
		"count":4557,
		"byteOffset":24,
		"min":[0.003324358258396387,
		0.02165881171822548],
		"max":[0.9838228821754456,
		0.9983581304550171]
	}],
	"bufferViews":[{
		"buffer":0,
		"byteOffset":0,
		"byteLength":9114,
		"target":34963
	},
	{
		"buffer":0,
		"byteOffset":9116,
		"byteLength":145824,
		"target":34962,
		"byteStride":32
	}],
	"buffers":[{
		"uri":"data:application/octet-stream;base64,",
		"byteLength":154940
	}]
}