{
	"asset":{
		"version":"2.0",
		"generator":"Maxon Cinema 4D 2025.0.2 (#200000219)"
	},
	"scenes":[{
		"nodes":[0]
	}],
	"nodes":[{
		"name":"HORNS",
		"mesh":0,
		"translation":[1.8022685050964356,
		2.311840057373047,
		-0.01433166116476059],
		"rotation":[0.0,
		0.0,
		0.0,
		-1.0],
		"scale":[1.0,
		1.0,
		1.0]
	}],
	"meshes":[{
		"name":"HORNS",
		"primitives":[{
			"attributes":{
				"POSITION":1,
				"NORMAL":2,
				"TEXCOORD_0":3
			},
			"indices":0
		}]
	}],
	"accessors":[{
		"bufferView":0,
		"type":"SCALAR",
		"componentType":5123,
		"max":[4154],
		"count":4155,
		"byteOffset":0,
		"min":[0]
	},
	{
		"bufferView":1,
		"type":"VEC3",
		"componentType":5126,
		"max":[0.027876781299710275,
		1.0385397672653199,
		1.4429335594177247],
		"count":4155,
		"byteOffset":0,
		"min":[-0.20249472558498383,
		-0.7535961270332336,
		-1.4145883321762086]
	},
	{
		"bufferView":1,
		"type":"VEC3",
		"componentType":5126,
		"max":[0.9997646808624268,
		0.9954349994659424,
		0.9883004426956177],
		"count":4155,
		"byteOffset":12,
		"min":[-0.9994345307350159,
		-0.9944764375686646,
		-0.9962592124938965]
	},
	{
		"bufferView":1,
		"type":"VEC2",
		"componentType":5126,
		"max":[0.8132551312446594,
		0.9946012496948242],
		"count":4155,
		"byteOffset":24,
		"min":[0.003744913963600993,
		0.00420010183006525]
	}],
	"bufferViews":[{
		"buffer":0,
		"target":34963,
		"byteOffset":0,
		"byteLength":8310
	},
	{
		"buffer":0,
		"target":34962,
		"byteOffset":8312,
		"byteLength":132960,
		"byteStride":32
	}],
	"buffers":[{
		"uri":"data:application/octet-stream;base64,",
		"byteLength":141272
	}]
}