{
	"asset":{
		"version":"2.0",
		"generator":"Maxon Cinema 4D 2025.0.2 (#200000219)"
	},
	"scenes":[{
		"nodes":[0]
	}],
	"buffers":[{
		"uri":"data:application/octet-stream;base64,",
		"byteLength":261120
	}],
	"nodes":[{
		"scale":[1.0,
		1.0,
		1.0],
		"name":"Front Legs_Dog",
		"mesh":0,
		"translation":[0.5151838064193726,
		0.03128184378147125,
		0.010099362581968308],
		"rotation":[0.0,
		0.0,
		0.0,
		-1.0]
	}],
	"meshes":[{
		"name":"Front Legs_Dog",
		"primitives":[{
			"attributes":{
				"POSITION":1,
				"NORMAL":2,
				"TEXCOORD_0":3
			},
			"indices":0
		}]
	}],
	"accessors":[{
		"bufferView":0,
		"type":"SCALAR",
		"componentType":5123,
		"count":7680,
		"byteOffset":0,
		"min":[0],
		"max":[7679]
	},
	{
		"bufferView":1,
		"type":"VEC3",
		"componentType":5126,
		"count":7680,
		"byteOffset":0,
		"min":[0.03861774876713753,
		-0.9744471311569214,
		-0.9963064789772034],
		"max":[0.8921822905540466,
		1.0996873378753663,
		0.9786431193351746]
	},
	{
		"bufferView":1,
		"type":"VEC3",
		"componentType":5126,
		"count":7680,
		"byteOffset":12,
		"min":[-0.999055802822113,
		-1.0,
		-0.9999584555625916],
		"max":[0.999055802822113,
		0.9891363382339478,
		0.9999584555625916]
	},
	{
		"bufferView":1,
		"type":"VEC2",
		"componentType":5126,
		"count":7680,
		"byteOffset":24,
		"min":[0.0,
		0.0],
		"max":[1.0,
		1.0]
	}],
	"bufferViews":[{
		"buffer":0,
		"target":34963,
		"byteOffset":0,
		"byteLength":15360
	},
	{
		"buffer":0,
		"target":34962,
		"byteOffset":15360,
		"byteLength":245760,
		"byteStride":32
	}]
}