{
	"bufferViews":[{
		"buffer":0,
		"byteOffset":0,
		"byteLength":15360,
		"target":34963
	},
	{
		"buffer":0,
		"byteOffset":15360,
		"byteLength":245760,
		"target":34962,
		"byteStride":32
	}],
	"asset":{
		"version":"2.0",
		"generator":"Maxon Cinema 4D 2025.0.2 (#200000219)"
	},
	"scenes":[{
		"nodes":[0]
	}],
	"nodes":[{
		"name":"Front Legs_frog",
		"mesh":0,
		"translation":[-0.11879488080739975,
		0.05489686504006386,
		0.5028474926948547],
		"rotation":[0.0,
		0.0,
		0.0,
		-1.0],
		"scale":[1.0,
		1.0,
		1.0]
	}],
	"meshes":[{
		"name":"Front Legs_frog",
		"primitives":[{
			"attributes":{
				"POSITION":1,
				"NORMAL":2,
				"TEXCOORD_0":3
			},
			"indices":0
		}]
	}],
	"accessors":[{
		"bufferView":0,
		"min":[0],
		"type":"SCALAR",
		"count":7680,
		"componentType":5123,
		"byteOffset":0,
		"max":[7679]
	},
	{
		"bufferView":1,
		"min":[-0.060464099049568179,
		-1.0,
		-1.4784924983978272],
		"type":"VEC3",
		"count":7680,
		"componentType":5126,
		"byteOffset":0,
		"max":[1.3425097465515137,
		0.8619521856307983,
		0.4263880252838135]
	},
	{
		"bufferView":1,
		"min":[-0.9995436668395996,
		-1.0,
		-0.9989675879478455],
		"type":"VEC3",
		"count":7680,
		"componentType":5126,
		"byteOffset":12,
		"max":[0.9999071955680847,
		0.9988619685173035,
		0.9997514486312866]
	},
	{
		"bufferView":1,
		"min":[0.0,
		0.0],
		"type":"VEC2",
		"count":7680,
		"componentType":5126,
		"byteOffset":24,
		"max":[1.0,
		1.0]
	}],
	"buffers":[{
		"uri":"data:application/octet-stream;base64,",
		"byteLength":261120
	}]
}