{
	"asset":{
		"version":"2.0",
		"generator":"Maxon Cinema 4D 2025.0.2 (#200000219)"
	},
	"scenes":[{
		"nodes":[0]
	}],
	"nodes":[{
		"name":"Legs1",
		"translation":[0.0,
		0.04858214408159256,
		-0.11923187226057053],
		"mesh":0,
		"rotation":[0.0,
		0.0,
		0.0,
		-1.0],
		"scale":[1.0,
		1.0,
		1.0]
	}],
	"meshes":[{
		"name":"Legs1",
		"primitives":[{
			"attributes":{
				"POSITION":1,
				"NORMAL":2,
				"TEXCOORD_0":3
			},
			"indices":0
		}]
	}],
	"accessors":[{
		"bufferView":0,
		"type":"SCALAR",
		"componentType":5123,
		"count":3054,
		"byteOffset":0,
		"min":[0],
		"max":[3053]
	},
	{
		"bufferView":1,
		"type":"VEC3",
		"componentType":5126,
		"count":3054,
		"byteOffset":0,
		"min":[0.7893112897872925,
		-0.9822799563407898,
		-0.6525881290435791],
		"max":[1.2595001459121705,
		0.8336613774299622,
		0.9590410590171814]
	},
	{
		"bufferView":1,
		"type":"VEC3",
		"componentType":5126,
		"count":3054,
		"byteOffset":12,
		"min":[-0.9975895285606384,
		-0.9912640452384949,
		-0.9980574250221252],
		"max":[0.9793932437896729,
		0.9773732423782349,
		0.9973294734954834]
	},
	{
		"bufferView":1,
		"type":"VEC2",
		"componentType":5126,
		"count":3054,
		"byteOffset":24,
		"min":[0.0028309712652117016,
		0.00047143170377239585],
		"max":[0.9992181658744812,
		0.998785138130188]
	}],
	"bufferViews":[{
		"buffer":0,
		"byteOffset":0,
		"byteLength":6108,
		"target":34963
	},
	{
		"buffer":0,
		"byteOffset":6108,
		"byteLength":97728,
		"target":34962,
		"byteStride":32
	}],
	"buffers":[{
		"uri":"data:application/octet-stream;base64,",
		"byteLength":103836
	}]
}